<svg width="200" height="200" viewBox="0 0 200 200" fill="none" xmlns="http://www.w3.org/2000/svg">
<path d="M26.8 73.1325C22.7 74.2325 22.4 74.9325 24.1 79.7325L25.2 82.8325L32.2 82.2325C39.5 81.6325 41 82.2325 41 86.1325C41 87.6325 40.1 87.9326 36 87.9326C25.8 87.9326 20 92.7325 20 100.933C20 106.833 22.6 110.433 28 112.033C32.6 113.433 37.9 112.533 41.4 109.833L43.9 107.833L46.8 109.933C51.1 113.133 54 112.233 55.7 107.533C56.4 105.333 56.6 103.333 56.1 103.033C55.7 102.733 55.1 97.4325 54.8 91.2325C54.3 78.6325 53.1 75.7325 47.5 73.3326C43.6 71.7325 32.4 71.6325 26.8 73.1325ZM41 97.7325C41 102.533 36.7 104.733 34 101.433C31.8 98.8325 34.3 94.9326 38 94.9326C40.6 94.9326 41 95.3326 41 97.7325Z" fill="#48BF84"/>
<path d="M78.2 73.9325C74.3 76.3325 74 76.3325 74 74.4325C74 73.2325 72.6 72.9325 67.5 72.9325H61V100.333V127.833L66.8 127.233C75.4 126.533 75 126.933 75 117.933C75 113.533 75.2 109.933 75.5 109.933C75.7 109.933 77.5 110.633 79.4 111.533C85.9 114.633 93.1 111.433 97.2 103.633C102 94.4325 99.1 77.1325 92.1 73.5325C88 71.3325 82.2 71.5325 78.2 73.9325ZM84 83.8325C85.6 86.9325 85.2 98.1325 83.4 100.733C81.6 103.333 78.8 103.533 76.6 101.333C74.3 99.1325 74.4 86.3325 76.7 83.7325C78.8 81.3325 82.7 81.4325 84 83.8325Z" fill="#48BF84"/>
<path d="M124 72.6326C123.2 72.9326 121.5 74.1326 120.2 75.2326L117.9 77.3326L117.3 75.1326C116.8 73.1326 116.1 72.9326 110.9 72.9326H105V91.9326V110.933H112H119V97.4326C119 84.8326 119.1 83.9326 121.1 82.9326C125.5 80.5326 126 81.9326 126 96.9326V110.933H133H140V95.4326C140 78.9326 139.2 75.1326 135.1 72.9326C133 71.9326 126.6 71.7326 124 72.6326Z" fill="#48BF84"/>
<path d="M151 73.1327C149.1 73.6327 147.4 74.2327 147.2 74.4327C147 74.6327 147.4 76.5327 148 78.7327L149.2 82.6327L156.9 82.5327C164.4 82.4327 164.5 82.4327 164.8 85.0327C165.1 87.5327 164.9 87.6327 158.6 88.1327C148.8 88.9327 144 93.1327 144 101.033C144 111.133 156.5 116.333 165.2 109.933L168.1 107.833L170.7 109.833C172.1 111.033 174.5 111.933 176 111.933C178.3 111.933 178.9 111.333 179.9 107.833C180.8 104.833 180.8 103.333 180.1 102.633C179.5 102.033 179 97.3327 179 91.4327C179 79.8327 177.3 75.8327 171.5 73.3327C167.6 71.7327 156.3 71.6327 151 73.1327ZM165 98.4327C165 101.233 164.6 102.033 162.6 102.533C159.4 103.333 158 102.333 158 99.5327C158 96.7327 159.8 94.9327 162.7 94.9327C164.7 94.9327 165 95.4327 165 98.4327Z" fill="#48BF84"/>
<rect y="175" width="67" height="25" fill="#48BF84"/>
<rect x="67" y="175" width="67" height="25" fill="#27AF6C"/>
<rect x="133" y="175" width="67" height="25" fill="#48BF84" fill-opacity="0.65"/>
</svg>
