<svg width="200" height="200" viewBox="0 0 200 200" fill="none" xmlns="http://www.w3.org/2000/svg">
<rect x="11" y="84" width="9" height="9" fill="#48BF84"/>
<rect x="22" y="84" width="9" height="9" fill="#48BF84"/>
<rect x="22" y="95" width="9" height="9" fill="#48BF84" fill-opacity="0.45"/>
<rect x="11" y="95" width="9" height="9" fill="#48BF84"/>
<path d="M36.6406 86H38.8203V101.539L38.6328 104H36.6406V86ZM47.3867 97.5547V97.8008C47.3867 98.7227 47.2773 99.5781 47.0586 100.367C46.8398 101.148 46.5195 101.828 46.0977 102.406C45.6758 102.984 45.1602 103.434 44.5508 103.754C43.9414 104.074 43.2422 104.234 42.4531 104.234C41.6484 104.234 40.9414 104.098 40.332 103.824C39.7305 103.543 39.2227 103.141 38.8086 102.617C38.3945 102.094 38.0625 101.461 37.8125 100.719C37.5703 99.9766 37.4023 99.1406 37.3086 98.2109V97.1328C37.4023 96.1953 37.5703 95.3555 37.8125 94.6133C38.0625 93.8711 38.3945 93.2383 38.8086 92.7148C39.2227 92.1836 39.7305 91.7812 40.332 91.5078C40.9336 91.2266 41.6328 91.0859 42.4297 91.0859C43.2266 91.0859 43.9336 91.2422 44.5508 91.5547C45.168 91.8594 45.6836 92.2969 46.0977 92.8672C46.5195 93.4375 46.8398 94.1211 47.0586 94.918C47.2773 95.707 47.3867 96.5859 47.3867 97.5547ZM45.207 97.8008V97.5547C45.207 96.9219 45.1484 96.3281 45.0312 95.7734C44.9141 95.2109 44.7266 94.7188 44.4688 94.2969C44.2109 93.8672 43.8711 93.5312 43.4492 93.2891C43.0273 93.0391 42.5078 92.9141 41.8906 92.9141C41.3438 92.9141 40.8672 93.0078 40.4609 93.1953C40.0625 93.3828 39.7227 93.6367 39.4414 93.957C39.1602 94.2695 38.9297 94.6289 38.75 95.0352C38.5781 95.4336 38.4492 95.8477 38.3633 96.2773V99.1016C38.4883 99.6484 38.6914 100.176 38.9727 100.684C39.2617 101.184 39.6445 101.594 40.1211 101.914C40.6055 102.234 41.2031 102.395 41.9141 102.395C42.5 102.395 43 102.277 43.4141 102.043C43.8359 101.801 44.1758 101.469 44.4336 101.047C44.6992 100.625 44.8945 100.137 45.0195 99.582C45.1445 99.0273 45.207 98.4336 45.207 97.8008Z" fill="#48BF84"/>
<path d="M51.4365 85.8018H52.5967C53.165 85.8018 53.6338 85.708 54.0029 85.5205C54.3779 85.3271 54.6562 85.0664 54.8379 84.7383C55.0254 84.4043 55.1191 84.0293 55.1191 83.6133C55.1191 83.1211 55.0371 82.708 54.873 82.374C54.709 82.04 54.4629 81.7881 54.1348 81.6182C53.8066 81.4482 53.3906 81.3633 52.8867 81.3633C52.4297 81.3633 52.0254 81.4541 51.6738 81.6357C51.3281 81.8115 51.0557 82.0635 50.8564 82.3916C50.6631 82.7197 50.5664 83.1064 50.5664 83.5518H48.9404C48.9404 82.9014 49.1045 82.3096 49.4326 81.7764C49.7607 81.2432 50.2207 80.8184 50.8125 80.502C51.4102 80.1855 52.1016 80.0273 52.8867 80.0273C53.6602 80.0273 54.3369 80.165 54.917 80.4404C55.4971 80.71 55.9482 81.1143 56.2705 81.6533C56.5928 82.1865 56.7539 82.8516 56.7539 83.6484C56.7539 83.9707 56.6777 84.3164 56.5254 84.6855C56.3789 85.0488 56.1475 85.3887 55.8311 85.7051C55.5205 86.0215 55.1162 86.2822 54.6182 86.4873C54.1201 86.6865 53.5225 86.7861 52.8252 86.7861H51.4365V85.8018ZM51.4365 87.1377V86.1621H52.8252C53.6396 86.1621 54.3135 86.2588 54.8467 86.4521C55.3799 86.6455 55.7988 86.9033 56.1035 87.2256C56.4141 87.5479 56.6309 87.9023 56.7539 88.2891C56.8828 88.6699 56.9473 89.0508 56.9473 89.4316C56.9473 90.0293 56.8447 90.5596 56.6396 91.0225C56.4404 91.4854 56.1562 91.8779 55.7871 92.2002C55.4238 92.5225 54.9961 92.7656 54.5039 92.9297C54.0117 93.0938 53.4756 93.1758 52.8955 93.1758C52.3389 93.1758 51.8145 93.0967 51.3223 92.9385C50.8359 92.7803 50.4053 92.5518 50.0303 92.2529C49.6553 91.9482 49.3623 91.5762 49.1514 91.1367C48.9404 90.6914 48.835 90.1846 48.835 89.6162H50.4609C50.4609 90.0615 50.5576 90.4512 50.751 90.7852C50.9502 91.1191 51.2314 91.3799 51.5947 91.5674C51.9639 91.749 52.3975 91.8398 52.8955 91.8398C53.3936 91.8398 53.8213 91.7549 54.1787 91.585C54.542 91.4092 54.8203 91.1455 55.0137 90.7939C55.2129 90.4424 55.3125 90 55.3125 89.4668C55.3125 88.9336 55.2012 88.4971 54.9785 88.1572C54.7559 87.8115 54.4395 87.5566 54.0293 87.3926C53.625 87.2227 53.1475 87.1377 52.5967 87.1377H51.4365Z" fill="#48BF84"/>
<path d="M68.4062 86.9375V104H66.1445V86.9375H68.4062ZM74.5994 94.0273V104H72.4314V91.3203H74.4822L74.5994 94.0273ZM74.0837 97.1797L73.1814 97.1445C73.1892 96.2773 73.3181 95.4766 73.5681 94.7422C73.8181 94 74.1697 93.3555 74.6228 92.8086C75.0759 92.2617 75.615 91.8398 76.24 91.543C76.8728 91.2383 77.572 91.0859 78.3377 91.0859C78.9627 91.0859 79.5252 91.1719 80.0252 91.3438C80.5252 91.5078 80.9509 91.7734 81.3025 92.1406C81.6619 92.5078 81.9353 92.9844 82.1228 93.5703C82.3103 94.1484 82.4041 94.8555 82.4041 95.6914V104H80.2244V95.668C80.2244 95.0039 80.1267 94.4727 79.9314 94.0742C79.7361 93.668 79.4509 93.375 79.0759 93.1953C78.7009 93.0078 78.24 92.9141 77.6931 92.9141C77.1541 92.9141 76.6619 93.0273 76.2166 93.2539C75.7791 93.4805 75.4002 93.793 75.0798 94.1914C74.7673 94.5898 74.5212 95.0469 74.3416 95.5625C74.1697 96.0703 74.0837 96.6094 74.0837 97.1797ZM91.2456 91.3203V92.9844H84.3902V91.3203H91.2456ZM86.7105 88.2383H88.8784V100.859C88.8784 101.289 88.9448 101.613 89.0777 101.832C89.2105 102.051 89.3823 102.195 89.5933 102.266C89.8042 102.336 90.0308 102.371 90.273 102.371C90.4527 102.371 90.6402 102.355 90.8355 102.324C91.0386 102.285 91.1909 102.254 91.2925 102.23L91.3042 104C91.1323 104.055 90.9058 104.105 90.6245 104.152C90.3511 104.207 90.0191 104.234 89.6284 104.234C89.0972 104.234 88.6089 104.129 88.1636 103.918C87.7183 103.707 87.3628 103.355 87.0972 102.863C86.8394 102.363 86.7105 101.691 86.7105 100.848V88.2383ZM99.2903 104.234C98.4075 104.234 97.6067 104.086 96.888 103.789C96.177 103.484 95.5637 103.059 95.0481 102.512C94.5403 101.965 94.1497 101.316 93.8762 100.566C93.6028 99.8164 93.4661 98.9961 93.4661 98.1055V97.6133C93.4661 96.582 93.6184 95.6641 93.9231 94.8594C94.2278 94.0469 94.6419 93.3594 95.1653 92.7969C95.6887 92.2344 96.2825 91.8086 96.9466 91.5195C97.6106 91.2305 98.2981 91.0859 99.0091 91.0859C99.9153 91.0859 100.697 91.2422 101.353 91.5547C102.017 91.8672 102.56 92.3047 102.982 92.8672C103.404 93.4219 103.716 94.0781 103.919 94.8359C104.122 95.5859 104.224 96.4062 104.224 97.2969V98.2695H94.7552V96.5H102.056V96.3359C102.025 95.7734 101.907 95.2266 101.704 94.6953C101.509 94.1641 101.197 93.7266 100.767 93.3828C100.337 93.0391 99.7512 92.8672 99.0091 92.8672C98.5169 92.8672 98.0637 92.9727 97.6497 93.1836C97.2356 93.3867 96.8802 93.6914 96.5833 94.0977C96.2864 94.5039 96.0559 95 95.8919 95.5859C95.7278 96.1719 95.6458 96.8477 95.6458 97.6133V98.1055C95.6458 98.707 95.7278 99.2734 95.8919 99.8047C96.0637 100.328 96.3098 100.789 96.6302 101.188C96.9583 101.586 97.3528 101.898 97.8137 102.125C98.2825 102.352 98.8137 102.465 99.4075 102.465C100.173 102.465 100.822 102.309 101.353 101.996C101.884 101.684 102.349 101.266 102.747 100.742L104.06 101.785C103.786 102.199 103.439 102.594 103.017 102.969C102.595 103.344 102.075 103.648 101.458 103.883C100.849 104.117 100.126 104.234 99.2903 104.234ZM109.351 86V104H107.171V86H109.351ZM115.427 86V104H113.247V86H115.427ZM121.502 91.3203V104H119.323V91.3203H121.502ZM119.159 87.957C119.159 87.6055 119.264 87.3086 119.475 87.0664C119.694 86.8242 120.014 86.7031 120.436 86.7031C120.85 86.7031 121.167 86.8242 121.385 87.0664C121.612 87.3086 121.725 87.6055 121.725 87.957C121.725 88.293 121.612 88.582 121.385 88.8242C121.167 89.0586 120.85 89.1758 120.436 89.1758C120.014 89.1758 119.694 89.0586 119.475 88.8242C119.264 88.582 119.159 88.293 119.159 87.957ZM133.438 91.3203H135.407V103.73C135.407 104.848 135.18 105.801 134.727 106.59C134.274 107.379 133.641 107.977 132.828 108.383C132.024 108.797 131.094 109.004 130.039 109.004C129.602 109.004 129.086 108.934 128.493 108.793C127.907 108.66 127.328 108.43 126.758 108.102C126.196 107.781 125.723 107.348 125.34 106.801L126.477 105.512C127.008 106.152 127.563 106.598 128.141 106.848C128.727 107.098 129.305 107.223 129.875 107.223C130.563 107.223 131.157 107.094 131.657 106.836C132.157 106.578 132.543 106.195 132.817 105.688C133.098 105.188 133.239 104.57 133.239 103.836V94.1094L133.438 91.3203ZM124.707 97.8008V97.5547C124.707 96.5859 124.821 95.707 125.047 94.918C125.282 94.1211 125.614 93.4375 126.043 92.8672C126.481 92.2969 127.008 91.8594 127.625 91.5547C128.243 91.2422 128.938 91.0859 129.711 91.0859C130.508 91.0859 131.203 91.2266 131.797 91.5078C132.399 91.7812 132.907 92.1836 133.321 92.7148C133.743 93.2383 134.075 93.8711 134.317 94.6133C134.559 95.3555 134.727 96.1953 134.821 97.1328V98.2109C134.735 99.1406 134.567 99.9766 134.317 100.719C134.075 101.461 133.743 102.094 133.321 102.617C132.907 103.141 132.399 103.543 131.797 103.824C131.196 104.098 130.493 104.234 129.688 104.234C128.93 104.234 128.243 104.074 127.625 103.754C127.016 103.434 126.493 102.984 126.055 102.406C125.618 101.828 125.282 101.148 125.047 100.367C124.821 99.5781 124.707 98.7227 124.707 97.8008ZM126.875 97.5547V97.8008C126.875 98.4336 126.938 99.0273 127.063 99.582C127.196 100.137 127.395 100.625 127.66 101.047C127.934 101.469 128.282 101.801 128.703 102.043C129.125 102.277 129.629 102.395 130.215 102.395C130.934 102.395 131.528 102.242 131.996 101.938C132.465 101.633 132.836 101.23 133.11 100.73C133.391 100.23 133.61 99.6875 133.766 99.1016V96.2773C133.68 95.8477 133.547 95.4336 133.368 95.0352C133.196 94.6289 132.969 94.2695 132.688 93.957C132.414 93.6367 132.075 93.3828 131.668 93.1953C131.262 93.0078 130.785 92.9141 130.239 92.9141C129.645 92.9141 129.133 93.0391 128.703 93.2891C128.282 93.5312 127.934 93.8672 127.66 94.2969C127.395 94.7188 127.196 95.2109 127.063 95.7734C126.938 96.3281 126.875 96.9219 126.875 97.5547ZM144.201 104.234C143.318 104.234 142.518 104.086 141.799 103.789C141.088 103.484 140.475 103.059 139.959 102.512C139.451 101.965 139.061 101.316 138.787 100.566C138.514 99.8164 138.377 98.9961 138.377 98.1055V97.6133C138.377 96.582 138.529 95.6641 138.834 94.8594C139.139 94.0469 139.553 93.3594 140.076 92.7969C140.6 92.2344 141.193 91.8086 141.857 91.5195C142.522 91.2305 143.209 91.0859 143.92 91.0859C144.826 91.0859 145.607 91.2422 146.264 91.5547C146.928 91.8672 147.471 92.3047 147.893 92.8672C148.315 93.4219 148.627 94.0781 148.83 94.8359C149.033 95.5859 149.135 96.4062 149.135 97.2969V98.2695H139.666V96.5H146.967V96.3359C146.936 95.7734 146.818 95.2266 146.615 94.6953C146.42 94.1641 146.107 93.7266 145.678 93.3828C145.248 93.0391 144.662 92.8672 143.92 92.8672C143.428 92.8672 142.975 92.9727 142.561 93.1836C142.147 93.3867 141.791 93.6914 141.494 94.0977C141.197 94.5039 140.967 95 140.803 95.5859C140.639 96.1719 140.557 96.8477 140.557 97.6133V98.1055C140.557 98.707 140.639 99.2734 140.803 99.8047C140.975 100.328 141.221 100.789 141.541 101.188C141.869 101.586 142.264 101.898 142.725 102.125C143.193 102.352 143.725 102.465 144.318 102.465C145.084 102.465 145.732 102.309 146.264 101.996C146.795 101.684 147.26 101.266 147.658 100.742L148.971 101.785C148.697 102.199 148.35 102.594 147.928 102.969C147.506 103.344 146.986 103.648 146.369 103.883C145.76 104.117 145.037 104.234 144.201 104.234ZM154.074 94.0273V104H151.906V91.3203H153.957L154.074 94.0273ZM153.558 97.1797L152.656 97.1445C152.664 96.2773 152.793 95.4766 153.043 94.7422C153.293 94 153.644 93.3555 154.098 92.8086C154.551 92.2617 155.09 91.8398 155.715 91.543C156.348 91.2383 157.047 91.0859 157.812 91.0859C158.437 91.0859 159 91.1719 159.5 91.3438C160 91.5078 160.426 91.7734 160.777 92.1406C161.137 92.5078 161.41 92.9844 161.598 93.5703C161.785 94.1484 161.879 94.8555 161.879 95.6914V104H159.699V95.668C159.699 95.0039 159.601 94.4727 159.406 94.0742C159.211 93.668 158.926 93.375 158.551 93.1953C158.176 93.0078 157.715 92.9141 157.168 92.9141C156.629 92.9141 156.137 93.0273 155.691 93.2539C155.254 93.4805 154.875 93.793 154.555 94.1914C154.242 94.5898 153.996 95.0469 153.816 95.5625C153.644 96.0703 153.558 96.6094 153.558 97.1797ZM170.486 102.453C171.002 102.453 171.478 102.348 171.916 102.137C172.353 101.926 172.713 101.637 172.994 101.27C173.275 100.895 173.435 100.469 173.474 99.9922H175.537C175.498 100.742 175.244 101.441 174.775 102.09C174.314 102.73 173.709 103.25 172.959 103.648C172.209 104.039 171.384 104.234 170.486 104.234C169.533 104.234 168.701 104.066 167.99 103.73C167.287 103.395 166.701 102.934 166.232 102.348C165.771 101.762 165.423 101.09 165.189 100.332C164.963 99.5664 164.849 98.7578 164.849 97.9062V97.4141C164.849 96.5625 164.963 95.7578 165.189 95C165.423 94.2344 165.771 93.5586 166.232 92.9727C166.701 92.3867 167.287 91.9258 167.99 91.5898C168.701 91.2539 169.533 91.0859 170.486 91.0859C171.478 91.0859 172.345 91.2891 173.088 91.6953C173.83 92.0938 174.412 92.6406 174.834 93.3359C175.263 94.0234 175.498 94.8047 175.537 95.6797H173.474C173.435 95.1562 173.287 94.6836 173.029 94.2617C172.779 93.8398 172.435 93.5039 171.998 93.2539C171.568 92.9961 171.064 92.8672 170.486 92.8672C169.822 92.8672 169.263 93 168.81 93.2656C168.365 93.5234 168.009 93.875 167.744 94.3203C167.486 94.7578 167.298 95.2461 167.181 95.7852C167.072 96.3164 167.017 96.8594 167.017 97.4141V97.9062C167.017 98.4609 167.072 99.0078 167.181 99.5469C167.291 100.086 167.474 100.574 167.732 101.012C167.998 101.449 168.353 101.801 168.798 102.066C169.252 102.324 169.814 102.453 170.486 102.453ZM183.476 104.234C182.593 104.234 181.792 104.086 181.074 103.789C180.363 103.484 179.749 103.059 179.234 102.512C178.726 101.965 178.335 101.316 178.062 100.566C177.788 99.8164 177.652 98.9961 177.652 98.1055V97.6133C177.652 96.582 177.804 95.6641 178.109 94.8594C178.413 94.0469 178.827 93.3594 179.351 92.7969C179.874 92.2344 180.468 91.8086 181.132 91.5195C181.796 91.2305 182.484 91.0859 183.195 91.0859C184.101 91.0859 184.882 91.2422 185.538 91.5547C186.202 91.8672 186.745 92.3047 187.167 92.8672C187.589 93.4219 187.902 94.0781 188.105 94.8359C188.308 95.5859 188.41 96.4062 188.41 97.2969V98.2695H178.941V96.5H186.242V96.3359C186.21 95.7734 186.093 95.2266 185.89 94.6953C185.695 94.1641 185.382 93.7266 184.952 93.3828C184.523 93.0391 183.937 92.8672 183.195 92.8672C182.702 92.8672 182.249 92.9727 181.835 93.1836C181.421 93.3867 181.066 93.6914 180.769 94.0977C180.472 94.5039 180.242 95 180.077 95.5859C179.913 96.1719 179.831 96.8477 179.831 97.6133V98.1055C179.831 98.707 179.913 99.2734 180.077 99.8047C180.249 100.328 180.495 100.789 180.816 101.188C181.144 101.586 181.538 101.898 181.999 102.125C182.468 102.352 182.999 102.465 183.593 102.465C184.359 102.465 185.007 102.309 185.538 101.996C186.07 101.684 186.535 101.266 186.933 100.742L188.245 101.785C187.972 102.199 187.624 102.594 187.202 102.969C186.781 103.344 186.261 103.648 185.644 103.883C185.035 104.117 184.312 104.234 183.476 104.234Z" fill="#48BF84"/>
<path d="M76.3594 118.675H74.5576L74.5479 117.918H76.1836C76.4538 117.918 76.6898 117.872 76.8916 117.781C77.0934 117.69 77.2497 117.56 77.3604 117.391C77.4743 117.218 77.5312 117.013 77.5312 116.775C77.5312 116.515 77.4808 116.303 77.3799 116.141C77.2822 115.975 77.1309 115.854 76.9258 115.779C76.724 115.701 76.4668 115.662 76.1543 115.662H74.7676V122H73.8252V114.891H76.1543C76.5189 114.891 76.8444 114.928 77.1309 115.003C77.4173 115.075 77.6598 115.188 77.8584 115.345C78.0602 115.498 78.2132 115.693 78.3174 115.931C78.4215 116.168 78.4736 116.453 78.4736 116.785C78.4736 117.078 78.3988 117.343 78.249 117.581C78.0993 117.815 77.891 118.007 77.624 118.157C77.3604 118.307 77.0511 118.403 76.6963 118.445L76.3594 118.675ZM76.3154 122H74.1865L74.7188 121.233H76.3154C76.6149 121.233 76.8688 121.181 77.0771 121.077C77.2887 120.973 77.4499 120.826 77.5605 120.638C77.6712 120.446 77.7266 120.219 77.7266 119.959C77.7266 119.695 77.6794 119.467 77.585 119.275C77.4906 119.083 77.3424 118.935 77.1406 118.831C76.9388 118.727 76.6784 118.675 76.3594 118.675H75.0166L75.0264 117.918H76.8623L77.0625 118.191C77.4043 118.221 77.694 118.318 77.9316 118.484C78.1693 118.647 78.3499 118.855 78.4736 119.109C78.6006 119.363 78.6641 119.643 78.6641 119.949C78.6641 120.392 78.5664 120.766 78.3711 121.072C78.179 121.375 77.9072 121.606 77.5557 121.766C77.2041 121.922 76.7907 122 76.3154 122ZM84.6723 121.233V122H80.9076V121.233H84.6723ZM81.098 114.891V122H80.1557V114.891H81.098ZM84.1742 117.947V118.714H80.9076V117.947H84.1742ZM84.6234 114.891V115.662H80.9076V114.891H84.6234ZM86.2664 114.891L88.1121 118.46L89.9627 114.891H91.032L88.5809 119.344V122H87.6385V119.344L85.1873 114.891H86.2664ZM97.3723 118.221V118.67C97.3723 119.204 97.3055 119.682 97.1721 120.105C97.0386 120.529 96.8465 120.888 96.5959 121.185C96.3452 121.481 96.0441 121.707 95.6926 121.863C95.3443 122.02 94.9536 122.098 94.5207 122.098C94.1008 122.098 93.715 122.02 93.3635 121.863C93.0152 121.707 92.7124 121.481 92.4553 121.185C92.2014 120.888 92.0044 120.529 91.8645 120.105C91.7245 119.682 91.6545 119.204 91.6545 118.67V118.221C91.6545 117.687 91.7229 117.21 91.8596 116.79C91.9995 116.367 92.1965 116.007 92.4504 115.711C92.7043 115.411 93.0054 115.184 93.3537 115.027C93.7053 114.871 94.091 114.793 94.5109 114.793C94.9439 114.793 95.3345 114.871 95.6828 115.027C96.0344 115.184 96.3355 115.411 96.5861 115.711C96.84 116.007 97.0337 116.367 97.1672 116.79C97.3039 117.21 97.3723 117.687 97.3723 118.221ZM96.4396 118.67V118.211C96.4396 117.788 96.3957 117.413 96.3078 117.088C96.2232 116.762 96.0979 116.489 95.9318 116.268C95.7658 116.046 95.5624 115.879 95.3215 115.765C95.0839 115.651 94.8137 115.594 94.5109 115.594C94.218 115.594 93.9527 115.651 93.715 115.765C93.4807 115.879 93.2788 116.046 93.1096 116.268C92.9436 116.489 92.815 116.762 92.7238 117.088C92.6327 117.413 92.5871 117.788 92.5871 118.211V118.67C92.5871 119.096 92.6327 119.474 92.7238 119.803C92.815 120.128 92.9452 120.403 93.1145 120.628C93.287 120.849 93.4904 121.017 93.7248 121.131C93.9624 121.245 94.2277 121.302 94.5207 121.302C94.8267 121.302 95.0985 121.245 95.3361 121.131C95.5738 121.017 95.774 120.849 95.9367 120.628C96.1027 120.403 96.2281 120.128 96.3127 119.803C96.3973 119.474 96.4396 119.096 96.4396 118.67ZM104.352 114.891V122H103.405L99.8258 116.517V122H98.8834V114.891H99.8258L103.42 120.389V114.891H104.352ZM108.046 122H106.562L106.571 121.233H108.046C108.554 121.233 108.977 121.128 109.315 120.916C109.654 120.701 109.908 120.402 110.077 120.018C110.25 119.63 110.336 119.178 110.336 118.66V118.226C110.336 117.819 110.287 117.457 110.189 117.142C110.092 116.823 109.949 116.554 109.76 116.336C109.571 116.115 109.34 115.947 109.066 115.833C108.796 115.719 108.485 115.662 108.134 115.662H106.532V114.891H108.134C108.599 114.891 109.024 114.969 109.408 115.125C109.792 115.278 110.123 115.501 110.399 115.794C110.679 116.084 110.894 116.435 111.044 116.849C111.194 117.259 111.269 117.721 111.269 118.235V118.66C111.269 119.174 111.194 119.638 111.044 120.052C110.894 120.462 110.678 120.812 110.395 121.102C110.115 121.391 109.776 121.614 109.379 121.771C108.985 121.924 108.541 122 108.046 122ZM107.064 114.891V122H106.122V114.891H107.064ZM117.797 114.891V122H116.869V114.891H117.797ZM120.082 114.891V115.662H114.589V114.891H120.082ZM125.88 117.947V118.714H122.032V117.947H125.88ZM122.179 114.891V122H121.237V114.891H122.179ZM126.7 114.891V122H125.763V114.891H126.7ZM132.992 121.233V122H129.227V121.233H132.992ZM129.418 114.891V122H128.475V114.891H129.418ZM132.494 117.947V118.714H129.227V117.947H132.494ZM132.943 114.891V115.662H129.227V114.891H132.943ZM139.373 118.675H137.572L137.562 117.918H139.198C139.468 117.918 139.704 117.872 139.906 117.781C140.107 117.69 140.264 117.56 140.374 117.391C140.488 117.218 140.545 117.013 140.545 116.775C140.545 116.515 140.495 116.303 140.394 116.141C140.296 115.975 140.145 115.854 139.94 115.779C139.738 115.701 139.481 115.662 139.168 115.662H137.782V122H136.839V114.891H139.168C139.533 114.891 139.858 114.928 140.145 115.003C140.431 115.075 140.674 115.188 140.872 115.345C141.074 115.498 141.227 115.693 141.331 115.931C141.436 116.168 141.488 116.453 141.488 116.785C141.488 117.078 141.413 117.343 141.263 117.581C141.113 117.815 140.905 118.007 140.638 118.157C140.374 118.307 140.065 118.403 139.71 118.445L139.373 118.675ZM139.329 122H137.201L137.733 121.233H139.329C139.629 121.233 139.883 121.181 140.091 121.077C140.303 120.973 140.464 120.826 140.575 120.638C140.685 120.446 140.741 120.219 140.741 119.959C140.741 119.695 140.693 119.467 140.599 119.275C140.505 119.083 140.357 118.935 140.155 118.831C139.953 118.727 139.692 118.675 139.373 118.675H138.031L138.04 117.918H139.876L140.077 118.191C140.418 118.221 140.708 118.318 140.946 118.484C141.183 118.647 141.364 118.855 141.488 119.109C141.615 119.363 141.678 119.643 141.678 119.949C141.678 120.392 141.58 120.766 141.385 121.072C141.193 121.375 140.921 121.606 140.57 121.766C140.218 121.922 139.805 122 139.329 122ZM147.481 121.233V122H143.927V121.233H147.481ZM144.112 114.891V122H143.17V114.891H144.112ZM151.39 115.521L149.036 122H148.074L150.784 114.891H151.404L151.39 115.521ZM153.363 122L151.004 115.521L150.989 114.891H151.61L154.329 122H153.363ZM153.24 119.368V120.14H149.246V119.368H153.24ZM159.615 119.739H160.552C160.504 120.188 160.375 120.59 160.167 120.945C159.958 121.3 159.664 121.582 159.283 121.79C158.902 121.995 158.427 122.098 157.857 122.098C157.44 122.098 157.061 122.02 156.719 121.863C156.381 121.707 156.089 121.486 155.845 121.199C155.601 120.91 155.412 120.563 155.279 120.159C155.149 119.752 155.084 119.3 155.084 118.802V118.094C155.084 117.596 155.149 117.145 155.279 116.741C155.412 116.334 155.603 115.986 155.85 115.696C156.101 115.407 156.402 115.184 156.754 115.027C157.105 114.871 157.501 114.793 157.94 114.793C158.477 114.793 158.931 114.894 159.302 115.096C159.673 115.298 159.962 115.577 160.167 115.936C160.375 116.29 160.504 116.702 160.552 117.171H159.615C159.569 116.839 159.485 116.554 159.361 116.316C159.237 116.076 159.061 115.89 158.834 115.76C158.606 115.63 158.308 115.564 157.94 115.564C157.624 115.564 157.346 115.625 157.105 115.745C156.867 115.866 156.667 116.036 156.504 116.258C156.345 116.479 156.225 116.744 156.143 117.054C156.062 117.363 156.021 117.706 156.021 118.084V118.802C156.021 119.15 156.057 119.477 156.129 119.783C156.203 120.089 156.316 120.358 156.465 120.589C156.615 120.82 156.806 121.002 157.037 121.136C157.268 121.266 157.541 121.331 157.857 121.331C158.257 121.331 158.576 121.268 158.814 121.141C159.052 121.014 159.231 120.831 159.351 120.594C159.475 120.356 159.563 120.071 159.615 119.739ZM162.879 114.891V122H161.937V114.891H162.879ZM167.171 114.891L164.217 118.206L162.557 119.93L162.4 118.924L163.65 117.547L166.038 114.891H167.171ZM166.263 122L163.631 118.533L164.192 117.786L167.386 122H166.263ZM173.43 118.675H171.629L171.619 117.918H173.255C173.525 117.918 173.761 117.872 173.963 117.781C174.165 117.69 174.321 117.56 174.431 117.391C174.545 117.218 174.602 117.013 174.602 116.775C174.602 116.515 174.552 116.303 174.451 116.141C174.353 115.975 174.202 115.854 173.997 115.779C173.795 115.701 173.538 115.662 173.225 115.662H171.839V122H170.896V114.891H173.225C173.59 114.891 173.915 114.928 174.202 115.003C174.488 115.075 174.731 115.188 174.929 115.345C175.131 115.498 175.284 115.693 175.388 115.931C175.493 116.168 175.545 116.453 175.545 116.785C175.545 117.078 175.47 117.343 175.32 117.581C175.17 117.815 174.962 118.007 174.695 118.157C174.431 118.307 174.122 118.403 173.767 118.445L173.43 118.675ZM173.387 122H171.258L171.79 121.233H173.387C173.686 121.233 173.94 121.181 174.148 121.077C174.36 120.973 174.521 120.826 174.632 120.638C174.742 120.446 174.798 120.219 174.798 119.959C174.798 119.695 174.75 119.467 174.656 119.275C174.562 119.083 174.414 118.935 174.212 118.831C174.01 118.727 173.749 118.675 173.43 118.675H172.088L172.097 117.918H173.933L174.134 118.191C174.475 118.221 174.765 118.318 175.003 118.484C175.24 118.647 175.421 118.855 175.545 119.109C175.672 119.363 175.735 119.643 175.735 119.949C175.735 120.392 175.637 120.766 175.442 121.072C175.25 121.375 174.978 121.606 174.627 121.766C174.275 121.922 173.862 122 173.387 122ZM182.7 118.221V118.67C182.7 119.204 182.634 119.682 182.5 120.105C182.367 120.529 182.175 120.888 181.924 121.185C181.673 121.481 181.372 121.707 181.021 121.863C180.672 122.02 180.282 122.098 179.849 122.098C179.429 122.098 179.043 122.02 178.692 121.863C178.343 121.707 178.041 121.481 177.783 121.185C177.529 120.888 177.333 120.529 177.193 120.105C177.053 119.682 176.983 119.204 176.983 118.67V118.221C176.983 117.687 177.051 117.21 177.188 116.79C177.328 116.367 177.525 116.007 177.779 115.711C178.032 115.411 178.334 115.184 178.682 115.027C179.033 114.871 179.419 114.793 179.839 114.793C180.272 114.793 180.663 114.871 181.011 115.027C181.363 115.184 181.664 115.411 181.914 115.711C182.168 116.007 182.362 116.367 182.495 116.79C182.632 117.21 182.7 117.687 182.7 118.221ZM181.768 118.67V118.211C181.768 117.788 181.724 117.413 181.636 117.088C181.551 116.762 181.426 116.489 181.26 116.268C181.094 116.046 180.89 115.879 180.65 115.765C180.412 115.651 180.142 115.594 179.839 115.594C179.546 115.594 179.281 115.651 179.043 115.765C178.809 115.879 178.607 116.046 178.438 116.268C178.272 116.489 178.143 116.762 178.052 117.088C177.961 117.413 177.915 117.788 177.915 118.211V118.67C177.915 119.096 177.961 119.474 178.052 119.803C178.143 120.128 178.273 120.403 178.443 120.628C178.615 120.849 178.819 121.017 179.053 121.131C179.291 121.245 179.556 121.302 179.849 121.302C180.155 121.302 180.427 121.245 180.664 121.131C180.902 121.017 181.102 120.849 181.265 120.628C181.431 120.403 181.556 120.128 181.641 119.803C181.725 119.474 181.768 119.096 181.768 118.67ZM184.714 114.891L186.423 117.615L188.132 114.891H189.231L186.985 118.411L189.285 122H188.176L186.423 119.222L184.671 122H183.562L185.862 118.411L183.616 114.891H184.714Z" fill="#48BF84" fill-opacity="0.69"/>
</svg>
