<svg width="200" height="200" viewBox="0 0 200 200" fill="none" xmlns="http://www.w3.org/2000/svg">
<path d="M43.534 96.012C43.534 96.4627 43.456 96.9133 43.3 97.364C43.1613 97.7973 42.936 98.2133 42.624 98.612C42.3293 98.9933 41.948 99.3313 41.48 99.626C41.012 99.9207 40.4573 100.137 39.816 100.276V100.38C40.3707 100.449 40.908 100.588 41.428 100.796C41.948 101.004 42.4073 101.29 42.806 101.654C43.2047 102.018 43.5253 102.46 43.768 102.98C44.0107 103.5 44.132 104.115 44.132 104.826C44.132 105.762 43.9153 106.577 43.482 107.27C43.0487 107.946 42.4767 108.509 41.766 108.96C41.0553 109.393 40.2493 109.714 39.348 109.922C38.464 110.13 37.5713 110.234 36.67 110.234C36.358 110.234 35.9767 110.225 35.526 110.208C35.0753 110.208 34.5987 110.191 34.096 110.156C33.6107 110.139 33.1167 110.104 32.614 110.052C32.1287 110.017 31.6953 109.957 31.314 109.87V91.956C32.0247 91.8347 32.8567 91.7393 33.81 91.67C34.7633 91.6007 35.786 91.566 36.878 91.566C37.6233 91.566 38.386 91.6353 39.166 91.774C39.9633 91.8953 40.6827 92.1207 41.324 92.45C41.9653 92.7793 42.494 93.23 42.91 93.802C43.326 94.374 43.534 95.1107 43.534 96.012ZM33.862 107.868C33.9833 107.903 34.1653 107.929 34.408 107.946C34.6507 107.963 34.9107 107.981 35.188 107.998C35.4827 108.015 35.7687 108.033 36.046 108.05C36.3407 108.05 36.6093 108.05 36.852 108.05C37.4413 108.05 38.0047 107.989 38.542 107.868C39.0967 107.747 39.582 107.556 39.998 107.296C40.414 107.036 40.7433 106.707 40.986 106.308C41.246 105.909 41.376 105.433 41.376 104.878C41.376 104.185 41.22 103.639 40.908 103.24C40.6133 102.824 40.2233 102.512 39.738 102.304C39.2527 102.079 38.7067 101.94 38.1 101.888C37.4933 101.819 36.8953 101.784 36.306 101.784H33.862V107.868ZM35.292 99.756C35.6213 99.756 36.0027 99.7473 36.436 99.73C36.8693 99.6953 37.2333 99.6607 37.528 99.626C37.9613 99.5047 38.3687 99.3573 38.75 99.184C39.1487 98.9933 39.4953 98.7767 39.79 98.534C40.0847 98.274 40.3187 97.9793 40.492 97.65C40.6653 97.3033 40.752 96.9133 40.752 96.48C40.752 95.8907 40.6307 95.4227 40.388 95.076C40.1627 94.712 39.8593 94.4347 39.478 94.244C39.0967 94.0533 38.6633 93.9233 38.178 93.854C37.6927 93.7847 37.1987 93.75 36.696 93.75C36.0893 93.75 35.526 93.7673 35.006 93.802C34.5033 93.8193 34.122 93.8453 33.862 93.88V99.756H35.292ZM48.0483 97.208C49.6083 96.4627 51.5409 96.09 53.8463 96.09C54.8863 96.09 55.7183 96.2287 56.3423 96.506C56.9836 96.766 57.4776 97.104 57.8243 97.52C58.1709 97.936 58.3963 98.404 58.5003 98.924C58.6216 99.4267 58.6823 99.9293 58.6823 100.432C58.6823 101.385 58.6476 102.347 58.5783 103.318C58.5089 104.271 58.4743 105.311 58.4743 106.438C58.4743 107.097 58.5003 107.738 58.5523 108.362C58.6216 108.969 58.7256 109.532 58.8643 110.052H57.1223L56.4723 107.972H56.2123C56.0216 108.232 55.7876 108.501 55.5103 108.778C55.2329 109.038 54.9036 109.272 54.5223 109.48C54.1409 109.688 53.6989 109.861 53.1963 110C52.7109 110.139 52.1476 110.208 51.5063 110.208C50.8649 110.208 50.2756 110.121 49.7383 109.948C49.2009 109.757 48.7329 109.497 48.3343 109.168C47.9529 108.839 47.6496 108.44 47.4243 107.972C47.1989 107.487 47.0863 106.949 47.0863 106.36C47.0863 105.58 47.2509 104.904 47.5803 104.332C47.9269 103.76 48.3689 103.292 48.9063 102.928C49.4436 102.564 50.0503 102.295 50.7263 102.122C51.4196 101.949 52.1043 101.862 52.7803 101.862C53.3176 101.862 53.7683 101.871 54.1323 101.888C54.5136 101.905 54.8256 101.931 55.0683 101.966C55.3283 101.983 55.5449 102.009 55.7183 102.044C55.8916 102.061 56.0476 102.079 56.1863 102.096C56.2209 101.836 56.2469 101.611 56.2643 101.42C56.2816 101.229 56.2903 100.987 56.2903 100.692C56.2903 100.207 56.2383 99.7993 56.1343 99.47C56.0303 99.1407 55.8569 98.8807 55.6143 98.69C55.3889 98.482 55.0769 98.3347 54.6783 98.248C54.2796 98.1613 53.7943 98.118 53.2223 98.118C52.8929 98.118 52.5289 98.144 52.1303 98.196C51.7316 98.248 51.3329 98.326 50.9343 98.43C50.5356 98.5167 50.1369 98.6293 49.7383 98.768C49.3569 98.9067 49.0103 99.054 48.6983 99.21L48.0483 97.208ZM56.1863 103.812C56.0476 103.795 55.9003 103.769 55.7443 103.734C55.5883 103.699 55.3889 103.673 55.1463 103.656C54.9209 103.639 54.6436 103.621 54.3143 103.604C54.0023 103.587 53.6123 103.578 53.1443 103.578C52.0696 103.578 51.2116 103.769 50.5703 104.15C49.9463 104.531 49.6343 105.181 49.6343 106.1C49.6343 106.793 49.8769 107.313 50.3623 107.66C50.8649 108.007 51.5063 108.18 52.2863 108.18C52.8583 108.18 53.3609 108.111 53.7943 107.972C54.2449 107.816 54.6263 107.634 54.9383 107.426C55.2676 107.201 55.5276 106.958 55.7183 106.698C55.9263 106.421 56.0823 106.152 56.1863 105.892V103.812ZM67.8351 104.982L68.6411 107.608H68.9791L69.6291 104.956L72.4631 96.35H74.9071L70.4351 108.7C70.1057 109.549 69.7677 110.373 69.4211 111.17C69.0917 111.967 68.7191 112.669 68.3031 113.276C67.9044 113.9 67.4537 114.394 66.9511 114.758C66.4657 115.139 65.9024 115.33 65.2611 115.33C64.5677 115.33 63.9784 115.252 63.4931 115.096L63.8831 113.068C64.1431 113.155 64.4031 113.198 64.6631 113.198C65.0097 113.198 65.3217 113.155 65.5991 113.068C65.8937 112.981 66.1624 112.825 66.4051 112.6C66.6477 112.375 66.8644 112.054 67.0551 111.638C67.2631 111.239 67.4537 110.719 67.6271 110.078L61.5171 96.35H64.3511L67.8351 104.982ZM88.7716 108.882C88.1649 109.333 87.4109 109.697 86.5096 109.974C85.6082 110.234 84.6289 110.364 83.5716 110.364C82.4276 110.364 81.4309 110.199 80.5816 109.87C79.7496 109.523 79.0649 109.038 78.5276 108.414C77.9902 107.79 77.5916 107.036 77.3316 106.152C77.0716 105.268 76.9416 104.28 76.9416 103.188C76.9416 100.848 77.5136 99.0627 78.6576 97.832C79.8189 96.584 81.4656 95.96 83.5976 95.96C84.2736 95.96 84.9496 96.038 85.6256 96.194C86.3016 96.3327 86.9082 96.61 87.4456 97.026C87.9829 97.4247 88.4162 97.9793 88.7456 98.69C89.0922 99.4007 89.2656 100.328 89.2656 101.472C89.2656 101.749 89.2569 102.07 89.2396 102.434C89.2222 102.798 89.1876 103.153 89.1356 103.5H79.3856C79.4202 105.095 79.8016 106.299 80.5296 107.114C81.2576 107.929 82.4969 108.336 84.2476 108.336C84.9756 108.336 85.6689 108.215 86.3276 107.972C86.9862 107.712 87.4976 107.409 87.8616 107.062L88.7716 108.882ZM86.9776 101.784C87.0122 100.397 86.7262 99.418 86.1196 98.846C85.5302 98.274 84.6982 97.988 83.6236 97.988C82.4102 97.988 81.4482 98.274 80.7376 98.846C80.0269 99.418 79.6109 100.397 79.4896 101.784H86.9776ZM100.359 106.178C100.359 105.831 100.272 105.545 100.099 105.32C99.9426 105.077 99.726 104.878 99.4486 104.722C99.1713 104.549 98.8506 104.401 98.4866 104.28C98.1226 104.159 97.7413 104.037 97.3426 103.916C96.84 103.777 96.3286 103.63 95.8086 103.474C95.306 103.301 94.8466 103.075 94.4306 102.798C94.032 102.503 93.7026 102.131 93.4426 101.68C93.1826 101.229 93.0526 100.657 93.0526 99.964C93.0526 98.612 93.4513 97.6067 94.2486 96.948C95.0633 96.2893 96.1986 95.96 97.6546 95.96C98.7466 95.96 99.6653 96.064 100.411 96.272C101.156 96.48 101.806 96.7053 102.361 96.948L101.789 98.976C101.321 98.7507 100.757 98.534 100.099 98.326C99.4573 98.1007 98.7466 97.988 97.9666 97.988C97.1173 97.988 96.4846 98.1267 96.0686 98.404C95.6526 98.6813 95.4446 99.184 95.4446 99.912C95.4446 100.207 95.5226 100.458 95.6786 100.666C95.8346 100.857 96.0426 101.03 96.3026 101.186C96.5626 101.325 96.866 101.455 97.2126 101.576C97.5593 101.68 97.9233 101.784 98.3046 101.888C98.8246 102.027 99.3446 102.191 99.8646 102.382C100.385 102.555 100.861 102.798 101.295 103.11C101.728 103.405 102.075 103.786 102.335 104.254C102.612 104.722 102.751 105.311 102.751 106.022C102.751 107.305 102.317 108.353 101.451 109.168C100.584 109.965 99.284 110.364 97.5506 110.364C96.4413 110.364 95.4706 110.251 94.6386 110.026C93.824 109.801 93.1393 109.541 92.5846 109.246L93.2606 107.166C93.746 107.426 94.37 107.686 95.1326 107.946C95.8953 108.206 96.6666 108.336 97.4466 108.336C98.296 108.336 98.9893 108.189 99.5266 107.894C100.081 107.582 100.359 107.01 100.359 106.178ZM126.464 110H114.556V91.8H117.156V107.712H126.464V110ZM128.852 97.208C130.412 96.4627 132.345 96.09 134.65 96.09C135.69 96.09 136.522 96.2287 137.146 96.506C137.788 96.766 138.282 97.104 138.628 97.52C138.975 97.936 139.2 98.404 139.304 98.924C139.426 99.4267 139.486 99.9293 139.486 100.432C139.486 101.385 139.452 102.347 139.382 103.318C139.313 104.271 139.278 105.311 139.278 106.438C139.278 107.097 139.304 107.738 139.356 108.362C139.426 108.969 139.53 109.532 139.668 110.052H137.926L137.276 107.972H137.016C136.826 108.232 136.592 108.501 136.314 108.778C136.037 109.038 135.708 109.272 135.326 109.48C134.945 109.688 134.503 109.861 134 110C133.515 110.139 132.952 110.208 132.31 110.208C131.669 110.208 131.08 110.121 130.542 109.948C130.005 109.757 129.537 109.497 129.138 109.168C128.757 108.839 128.454 108.44 128.228 107.972C128.003 107.487 127.89 106.949 127.89 106.36C127.89 105.58 128.055 104.904 128.384 104.332C128.731 103.76 129.173 103.292 129.71 102.928C130.248 102.564 130.854 102.295 131.53 102.122C132.224 101.949 132.908 101.862 133.584 101.862C134.122 101.862 134.572 101.871 134.936 101.888C135.318 101.905 135.63 101.931 135.872 101.966C136.132 101.983 136.349 102.009 136.522 102.044C136.696 102.061 136.852 102.079 136.99 102.096C137.025 101.836 137.051 101.611 137.068 101.42C137.086 101.229 137.094 100.987 137.094 100.692C137.094 100.207 137.042 99.7993 136.938 99.47C136.834 99.1407 136.661 98.8807 136.418 98.69C136.193 98.482 135.881 98.3347 135.482 98.248C135.084 98.1613 134.598 98.118 134.026 98.118C133.697 98.118 133.333 98.144 132.934 98.196C132.536 98.248 132.137 98.326 131.738 98.43C131.34 98.5167 130.941 98.6293 130.542 98.768C130.161 98.9067 129.814 99.054 129.502 99.21L128.852 97.208ZM136.99 103.812C136.852 103.795 136.704 103.769 136.548 103.734C136.392 103.699 136.193 103.673 135.95 103.656C135.725 103.639 135.448 103.621 135.118 103.604C134.806 103.587 134.416 103.578 133.948 103.578C132.874 103.578 132.016 103.769 131.374 104.15C130.75 104.531 130.438 105.181 130.438 106.1C130.438 106.793 130.681 107.313 131.166 107.66C131.669 108.007 132.31 108.18 133.09 108.18C133.662 108.18 134.165 108.111 134.598 107.972C135.049 107.816 135.43 107.634 135.742 107.426C136.072 107.201 136.332 106.958 136.522 106.698C136.73 106.421 136.886 106.152 136.99 105.892V103.812ZM144.401 91.8H146.793V98.04H147.053C147.452 97.3467 148.024 96.8353 148.769 96.506C149.515 96.1593 150.303 95.986 151.135 95.986C153.025 95.986 154.455 96.5667 155.425 97.728C156.413 98.872 156.907 100.605 156.907 102.928C156.907 105.303 156.266 107.114 154.983 108.362C153.701 109.61 151.898 110.234 149.575 110.234C148.431 110.234 147.391 110.139 146.455 109.948C145.537 109.757 144.852 109.532 144.401 109.272V91.8ZM150.797 98.014C150.243 98.014 149.749 98.1007 149.315 98.274C148.899 98.4473 148.527 98.69 148.197 99.002C147.868 99.2967 147.582 99.6433 147.339 100.042C147.114 100.423 146.932 100.822 146.793 101.238V107.712C147.643 108.041 148.674 108.206 149.887 108.206C151.257 108.206 152.34 107.79 153.137 106.958C153.952 106.109 154.359 104.757 154.359 102.902C154.359 102.209 154.29 101.567 154.151 100.978C154.013 100.371 153.796 99.8513 153.501 99.418C153.207 98.9847 152.834 98.6467 152.383 98.404C151.95 98.144 151.421 98.014 150.797 98.014ZM167.903 106.178C167.903 105.831 167.816 105.545 167.643 105.32C167.487 105.077 167.27 104.878 166.993 104.722C166.715 104.549 166.395 104.401 166.031 104.28C165.667 104.159 165.285 104.037 164.887 103.916C164.384 103.777 163.873 103.63 163.353 103.474C162.85 103.301 162.391 103.075 161.975 102.798C161.576 102.503 161.247 102.131 160.987 101.68C160.727 101.229 160.597 100.657 160.597 99.964C160.597 98.612 160.995 97.6067 161.793 96.948C162.607 96.2893 163.743 95.96 165.199 95.96C166.291 95.96 167.209 96.064 167.955 96.272C168.7 96.48 169.35 96.7053 169.905 96.948L169.333 98.976C168.865 98.7507 168.301 98.534 167.643 98.326C167.001 98.1007 166.291 97.988 165.511 97.988C164.661 97.988 164.029 98.1267 163.613 98.404C163.197 98.6813 162.989 99.184 162.989 99.912C162.989 100.207 163.067 100.458 163.223 100.666C163.379 100.857 163.587 101.03 163.847 101.186C164.107 101.325 164.41 101.455 164.757 101.576C165.103 101.68 165.467 101.784 165.849 101.888C166.369 102.027 166.889 102.191 167.409 102.382C167.929 102.555 168.405 102.798 168.839 103.11C169.272 103.405 169.619 103.786 169.879 104.254C170.156 104.722 170.295 105.311 170.295 106.022C170.295 107.305 169.861 108.353 168.995 109.168C168.128 109.965 166.828 110.364 165.095 110.364C163.985 110.364 163.015 110.251 162.183 110.026C161.368 109.801 160.683 109.541 160.129 109.246L160.805 107.166C161.29 107.426 161.914 107.686 162.677 107.946C163.439 108.206 164.211 108.336 164.991 108.336C165.84 108.336 166.533 108.189 167.071 107.894C167.625 107.582 167.903 107.01 167.903 106.178Z" fill="#48BF84"/>
</svg>
