<svg width="200" height="200" viewBox="0 0 200 200" fill="none" xmlns="http://www.w3.org/2000/svg">
<path d="M127 84.5H124.5L148.5 57L127 84.5Z" fill="#48BF84"/>
<path d="M98.5 84.5H96L147.5 57L98.5 84.5Z" fill="#48BF84"/>
<path d="M179 84.5L152 57L151 56L185 84.5H179Z" fill="#48BF84"/>
<path d="M146.5 84.5L149 56.5L152 84.5H146.5Z" fill="#48BF84"/>
<path d="M168 84.5H166.5L150 56.5L168 84.5Z" fill="#48BF84"/>
<path d="M64.5 84H60.5L146.5 57L64.5 84Z" fill="#48BF84"/>
<path d="M29.5 84.5H14L146.5 56.5L29.5 84.5Z" fill="#48BF84"/>
<path d="M30.188 106.358C31.1507 106.51 32.0247 106.903 32.81 107.536C33.6207 108.169 34.254 108.955 34.71 109.892C35.1913 110.829 35.432 111.83 35.432 112.894C35.432 114.237 35.09 115.453 34.406 116.542C33.722 117.606 32.7213 118.455 31.404 119.088C30.112 119.696 28.5793 120 26.806 120H16.926V93.514H26.426C28.2247 93.514 29.7573 93.818 31.024 94.426C32.2907 95.0087 33.2407 95.8067 33.874 96.82C34.5073 97.8333 34.824 98.9733 34.824 100.24C34.824 101.811 34.3933 103.115 33.532 104.154C32.696 105.167 31.5813 105.902 30.188 106.358ZM20.384 104.952H26.198C27.8193 104.952 29.0733 104.572 29.96 103.812C30.8467 103.052 31.29 102.001 31.29 100.658C31.29 99.3153 30.8467 98.264 29.96 97.504C29.0733 96.744 27.794 96.364 26.122 96.364H20.384V104.952ZM26.502 117.15C28.2247 117.15 29.5673 116.745 30.53 115.934C31.4927 115.123 31.974 113.996 31.974 112.552C31.974 111.083 31.4673 109.93 30.454 109.094C29.4407 108.233 28.0853 107.802 26.388 107.802H20.384V117.15H26.502ZM54.1767 120L47.8687 109.17H43.6887V120H40.2307V93.514H48.7807C50.782 93.514 52.4667 93.856 53.8347 94.54C55.228 95.224 56.2667 96.1487 56.9507 97.314C57.6347 98.4793 57.9767 99.8093 57.9767 101.304C57.9767 103.128 57.4447 104.737 56.3807 106.13C55.342 107.523 53.7714 108.448 51.6687 108.904L58.3187 120H54.1767ZM43.6887 106.396H48.7807C50.6554 106.396 52.0614 105.94 52.9987 105.028C53.936 104.091 54.4047 102.849 54.4047 101.304C54.4047 99.7333 53.936 98.5173 52.9987 97.656C52.0867 96.7947 50.6807 96.364 48.7807 96.364H43.6887V106.396ZM66.8078 93.514V120H63.3498V93.514H66.8078ZM80.9474 93.514C83.8354 93.514 86.3307 94.0587 88.4334 95.148C90.5614 96.212 92.1827 97.7447 93.2974 99.746C94.4374 101.747 95.0074 104.103 95.0074 106.814C95.0074 109.525 94.4374 111.881 93.2974 113.882C92.1827 115.858 90.5614 117.378 88.4334 118.442C86.3307 119.481 83.8354 120 80.9474 120H72.7014V93.514H80.9474ZM80.9474 117.15C84.3674 117.15 86.9767 116.251 88.7754 114.452C90.5741 112.628 91.4734 110.082 91.4734 106.814C91.4734 103.521 90.5614 100.949 88.7374 99.1C86.9387 97.2507 84.3421 96.326 80.9474 96.326H76.1594V117.15H80.9474ZM119.633 101.19C118.898 99.6447 117.834 98.454 116.441 97.618C115.047 96.7567 113.426 96.326 111.577 96.326C109.727 96.326 108.055 96.7567 106.561 97.618C105.091 98.454 103.926 99.67 103.065 101.266C102.229 102.837 101.811 104.661 101.811 106.738C101.811 108.815 102.229 110.639 103.065 112.21C103.926 113.781 105.091 114.997 106.561 115.858C108.055 116.694 109.727 117.112 111.577 117.112C114.161 117.112 116.289 116.339 117.961 114.794C119.633 113.249 120.608 111.159 120.887 108.524H110.323V105.712H124.573V108.372C124.37 110.551 123.686 112.552 122.521 114.376C121.355 116.175 119.823 117.606 117.923 118.67C116.023 119.709 113.907 120.228 111.577 120.228C109.119 120.228 106.877 119.658 104.851 118.518C102.824 117.353 101.215 115.744 100.025 113.692C98.8592 111.64 98.2766 109.322 98.2766 106.738C98.2766 104.154 98.8592 101.836 100.025 99.784C101.215 97.7067 102.824 96.098 104.851 94.958C106.877 93.7927 109.119 93.21 111.577 93.21C114.389 93.21 116.871 93.9067 119.025 95.3C121.203 96.6933 122.787 98.6567 123.775 101.19H119.633ZM132.603 96.326V105.18H142.255V108.03H132.603V117.15H143.395V120H129.145V93.476H143.395V96.326H132.603Z" fill="#48BF84" fill-opacity="0.74"/>
<path d="M150.413 95.794C149.755 95.794 149.197 95.566 148.741 95.11C148.285 94.654 148.057 94.0967 148.057 93.438C148.057 92.7793 148.285 92.222 148.741 91.766C149.197 91.31 149.755 91.082 150.413 91.082C151.047 91.082 151.579 91.31 152.009 91.766C152.465 92.222 152.693 92.7793 152.693 93.438C152.693 94.0967 152.465 94.654 152.009 95.11C151.579 95.566 151.047 95.794 150.413 95.794ZM152.085 99.176V120H148.627V99.176H152.085ZM156.991 117.226C160.208 114.642 162.729 112.527 164.553 110.88C166.377 109.208 167.909 107.473 169.151 105.674C170.417 103.85 171.051 102.064 171.051 100.316C171.051 98.6693 170.645 97.3773 169.835 96.44C169.049 95.4773 167.77 94.996 165.997 94.996C164.274 94.996 162.931 95.5407 161.969 96.63C161.031 97.694 160.525 99.1253 160.449 100.924H157.105C157.206 98.0867 158.067 95.8953 159.689 94.35C161.31 92.8047 163.4 92.032 165.959 92.032C168.568 92.032 170.633 92.754 172.153 94.198C173.698 95.642 174.471 97.6307 174.471 100.164C174.471 102.267 173.837 104.319 172.571 106.32C171.329 108.296 169.911 110.044 168.315 111.564C166.719 113.059 164.679 114.807 162.197 116.808H175.269V119.696H156.991V117.226ZM181.622 95.794C180.963 95.794 180.406 95.566 179.95 95.11C179.494 94.654 179.266 94.0967 179.266 93.438C179.266 92.7793 179.494 92.222 179.95 91.766C180.406 91.31 180.963 91.082 181.622 91.082C182.255 91.082 182.787 91.31 183.218 91.766C183.674 92.222 183.902 92.7793 183.902 93.438C183.902 94.0967 183.674 94.654 183.218 95.11C182.787 95.566 182.255 95.794 181.622 95.794ZM183.294 99.176V120H179.836V99.176H183.294Z" fill="#48BF84"/>
<path d="M21.516 133.084C21.516 133.78 21.276 134.36 20.796 134.824C20.324 135.28 19.6 135.508 18.624 135.508H17.016V139H15.924V130.636H18.624C19.568 130.636 20.284 130.864 20.772 131.32C21.268 131.776 21.516 132.364 21.516 133.084ZM18.624 134.608C19.232 134.608 19.68 134.476 19.968 134.212C20.256 133.948 20.4 133.572 20.4 133.084C20.4 132.052 19.808 131.536 18.624 131.536H17.016V134.608H18.624ZM22.4652 135.688C22.4652 135.016 22.6012 134.428 22.8732 133.924C23.1452 133.412 23.5172 133.016 23.9892 132.736C24.4692 132.456 25.0012 132.316 25.5852 132.316C26.1612 132.316 26.6612 132.44 27.0852 132.688C27.5092 132.936 27.8252 133.248 28.0332 133.624V132.424H29.1372V139H28.0332V137.776C27.8172 138.16 27.4932 138.48 27.0612 138.736C26.6372 138.984 26.1412 139.108 25.5732 139.108C24.9892 139.108 24.4612 138.964 23.9892 138.676C23.5172 138.388 23.1452 137.984 22.8732 137.464C22.6012 136.944 22.4652 136.352 22.4652 135.688ZM28.0332 135.7C28.0332 135.204 27.9332 134.772 27.7332 134.404C27.5332 134.036 27.2612 133.756 26.9172 133.564C26.5812 133.364 26.2092 133.264 25.8012 133.264C25.3932 133.264 25.0212 133.36 24.6852 133.552C24.3492 133.744 24.0812 134.024 23.8812 134.392C23.6812 134.76 23.5812 135.192 23.5812 135.688C23.5812 136.192 23.6812 136.632 23.8812 137.008C24.0812 137.376 24.3492 137.66 24.6852 137.86C25.0212 138.052 25.3932 138.148 25.8012 138.148C26.2092 138.148 26.5812 138.052 26.9172 137.86C27.2612 137.66 27.5332 137.376 27.7332 137.008C27.9332 136.632 28.0332 136.196 28.0332 135.7ZM32.0746 133.492C32.2666 133.116 32.5386 132.824 32.8906 132.616C33.2506 132.408 33.6866 132.304 34.1986 132.304V133.432H33.9106C32.6866 133.432 32.0746 134.096 32.0746 135.424V139H30.9826V132.424H32.0746V133.492ZM36.7912 133.324V137.2C36.7912 137.52 36.8592 137.748 36.9952 137.884C37.1312 138.012 37.3672 138.076 37.7032 138.076H38.5072V139H37.5232C36.9152 139 36.4592 138.86 36.1552 138.58C35.8512 138.3 35.6992 137.84 35.6992 137.2V133.324H34.8472V132.424H35.6992V130.768H36.7912V132.424H38.5072V133.324H36.7912ZM45.8975 139.108C45.2815 139.108 44.7215 138.968 44.2175 138.688C43.7215 138.408 43.3295 138.012 43.0415 137.5C42.7615 136.98 42.6215 136.38 42.6215 135.7C42.6215 135.028 42.7655 134.436 43.0535 133.924C43.3495 133.404 43.7495 133.008 44.2535 132.736C44.7575 132.456 45.3215 132.316 45.9455 132.316C46.5695 132.316 47.1335 132.456 47.6375 132.736C48.1415 133.008 48.5375 133.4 48.8255 133.912C49.1215 134.424 49.2695 135.02 49.2695 135.7C49.2695 136.38 49.1175 136.98 48.8135 137.5C48.5175 138.012 48.1135 138.408 47.6015 138.688C47.0895 138.968 46.5215 139.108 45.8975 139.108ZM45.8975 138.148C46.2895 138.148 46.6575 138.056 47.0015 137.872C47.3455 137.688 47.6215 137.412 47.8295 137.044C48.0455 136.676 48.1535 136.228 48.1535 135.7C48.1535 135.172 48.0495 134.724 47.8415 134.356C47.6335 133.988 47.3615 133.716 47.0255 133.54C46.6895 133.356 46.3255 133.264 45.9335 133.264C45.5335 133.264 45.1655 133.356 44.8295 133.54C44.5015 133.716 44.2375 133.988 44.0375 134.356C43.8375 134.724 43.7375 135.172 43.7375 135.7C43.7375 136.236 43.8335 136.688 44.0255 137.056C44.2255 137.424 44.4895 137.7 44.8175 137.884C45.1455 138.06 45.5055 138.148 45.8975 138.148ZM53.3813 133.324H52.0013V139H50.9093V133.324H50.0573V132.424H50.9093V131.956C50.9093 131.22 51.0973 130.684 51.4733 130.348C51.8573 130.004 52.4693 129.832 53.3092 129.832V130.744C52.8293 130.744 52.4893 130.84 52.2893 131.032C52.0973 131.216 52.0013 131.524 52.0013 131.956V132.424H53.3813V133.324Z" fill="#48BF84" fill-opacity="0.74"/>
<path d="M62.8577 137.296H59.3657L58.7657 139H57.3377L60.3257 130.648H61.9097L64.8977 139H63.4577L62.8577 137.296ZM62.4737 136.18L61.1177 132.304L59.7497 136.18H62.4737ZM65.7409 135.688C65.7409 135.008 65.8769 134.412 66.1489 133.9C66.4289 133.38 66.8129 132.98 67.3009 132.7C67.7889 132.42 68.3489 132.28 68.9809 132.28C69.7809 132.28 70.4409 132.472 70.9609 132.856C71.4889 133.232 71.8449 133.772 72.0289 134.476H70.5529C70.4329 134.148 70.2409 133.892 69.9769 133.708C69.7129 133.524 69.3809 133.432 68.9809 133.432C68.4209 133.432 67.9729 133.632 67.6369 134.032C67.3089 134.424 67.1449 134.976 67.1449 135.688C67.1449 136.4 67.3089 136.956 67.6369 137.356C67.9729 137.756 68.4209 137.956 68.9809 137.956C69.7729 137.956 70.2969 137.608 70.5529 136.912H72.0289C71.8369 137.584 71.4769 138.12 70.9489 138.52C70.4209 138.912 69.7649 139.108 68.9809 139.108C68.3489 139.108 67.7889 138.968 67.3009 138.688C66.8129 138.4 66.4289 138 66.1489 137.488C65.8769 136.968 65.7409 136.368 65.7409 135.688ZM72.9362 135.688C72.9362 135.008 73.0722 134.412 73.3442 133.9C73.6242 133.38 74.0082 132.98 74.4962 132.7C74.9842 132.42 75.5442 132.28 76.1762 132.28C76.9762 132.28 77.6362 132.472 78.1562 132.856C78.6842 133.232 79.0402 133.772 79.2242 134.476H77.7482C77.6282 134.148 77.4362 133.892 77.1722 133.708C76.9082 133.524 76.5762 133.432 76.1762 133.432C75.6162 133.432 75.1682 133.632 74.8322 134.032C74.5042 134.424 74.3402 134.976 74.3402 135.688C74.3402 136.4 74.5042 136.956 74.8322 137.356C75.1682 137.756 75.6162 137.956 76.1762 137.956C76.9682 137.956 77.4922 137.608 77.7482 136.912H79.2242C79.0322 137.584 78.6722 138.12 78.1442 138.52C77.6162 138.912 76.9602 139.108 76.1762 139.108C75.5442 139.108 74.9842 138.968 74.4962 138.688C74.0082 138.4 73.6242 138 73.3442 137.488C73.0722 136.968 72.9362 136.368 72.9362 135.688ZM86.6475 135.532C86.6475 135.78 86.6315 136.004 86.5995 136.204H81.5475C81.5875 136.732 81.7835 137.156 82.1355 137.476C82.4875 137.796 82.9195 137.956 83.4315 137.956C84.1675 137.956 84.6875 137.648 84.9915 137.032H86.4675C86.2675 137.64 85.9035 138.14 85.3755 138.532C84.8555 138.916 84.2075 139.108 83.4315 139.108C82.7995 139.108 82.2315 138.968 81.7275 138.688C81.2315 138.4 80.8395 138 80.5515 137.488C80.2715 136.968 80.1315 136.368 80.1315 135.688C80.1315 135.008 80.2675 134.412 80.5395 133.9C80.8195 133.38 81.2075 132.98 81.7035 132.7C82.2075 132.42 82.7835 132.28 83.4315 132.28C84.0555 132.28 84.6115 132.416 85.0995 132.688C85.5875 132.96 85.9675 133.344 86.2395 133.84C86.5115 134.328 86.6475 134.892 86.6475 135.532ZM85.2195 135.1C85.2115 134.596 85.0315 134.192 84.6795 133.888C84.3275 133.584 83.8915 133.432 83.3715 133.432C82.8995 133.432 82.4955 133.584 82.1595 133.888C81.8235 134.184 81.6235 134.588 81.5595 135.1H85.2195ZM91.3298 132.28C91.8498 132.28 92.3138 132.388 92.7218 132.604C93.1378 132.82 93.4618 133.14 93.6938 133.564C93.9258 133.988 94.0418 134.5 94.0418 135.1V139H92.6858V135.304C92.6858 134.712 92.5378 134.26 92.2418 133.948C91.9458 133.628 91.5418 133.468 91.0298 133.468C90.5178 133.468 90.1098 133.628 89.8058 133.948C89.5098 134.26 89.3618 134.712 89.3618 135.304V139H87.9938V132.388H89.3618V133.144C89.5858 132.872 89.8698 132.66 90.2138 132.508C90.5658 132.356 90.9378 132.28 91.3298 132.28ZM97.3827 133.504V137.164C97.3827 137.412 97.4387 137.592 97.5507 137.704C97.6707 137.808 97.8707 137.86 98.1507 137.86H98.9907V139H97.9107C97.2947 139 96.8227 138.856 96.4947 138.568C96.1667 138.28 96.0027 137.812 96.0027 137.164V133.504H95.2227V132.388H96.0027V130.744H97.3827V132.388H98.9907V133.504H97.3827ZM106.24 132.388V139H104.872V138.22C104.656 138.492 104.372 138.708 104.02 138.868C103.676 139.02 103.308 139.096 102.916 139.096C102.396 139.096 101.928 138.988 101.512 138.772C101.104 138.556 100.78 138.236 100.54 137.812C100.308 137.388 100.192 136.876 100.192 136.276V132.388H101.548V136.072C101.548 136.664 101.696 137.12 101.992 137.44C102.288 137.752 102.692 137.908 103.204 137.908C103.716 137.908 104.12 137.752 104.416 137.44C104.72 137.12 104.872 136.664 104.872 136.072V132.388H106.24ZM109.413 133.348C109.613 133.012 109.877 132.752 110.205 132.568C110.541 132.376 110.937 132.28 111.393 132.28V133.696H111.045C110.509 133.696 110.101 133.832 109.821 134.104C109.549 134.376 109.413 134.848 109.413 135.52V139H108.045V132.388H109.413V133.348ZM118.71 135.532C118.71 135.78 118.694 136.004 118.662 136.204H113.61C113.65 136.732 113.846 137.156 114.198 137.476C114.55 137.796 114.982 137.956 115.494 137.956C116.23 137.956 116.75 137.648 117.054 137.032H118.53C118.33 137.64 117.966 138.14 117.438 138.532C116.918 138.916 116.27 139.108 115.494 139.108C114.862 139.108 114.294 138.968 113.79 138.688C113.294 138.4 112.902 138 112.614 137.488C112.334 136.968 112.194 136.368 112.194 135.688C112.194 135.008 112.33 134.412 112.602 133.9C112.882 133.38 113.27 132.98 113.766 132.7C114.27 132.42 114.846 132.28 115.494 132.28C116.118 132.28 116.674 132.416 117.162 132.688C117.65 132.96 118.03 133.344 118.302 133.84C118.574 134.328 118.71 134.892 118.71 135.532ZM117.282 135.1C117.274 134.596 117.094 134.192 116.742 133.888C116.39 133.584 115.954 133.432 115.434 133.432C114.962 133.432 114.558 133.584 114.222 133.888C113.886 134.184 113.686 134.588 113.622 135.1H117.282Z" fill="#48BF84"/>
</svg>
