<svg width="200" height="200" viewBox="0 0 200 200" fill="none" xmlns="http://www.w3.org/2000/svg">
<path d="M24.4375 122.625C22.0833 122.625 19.9479 122.229 18.0312 121.438C16.1354 120.625 14.5 119.49 13.125 118.031C11.7708 116.573 10.7292 114.844 10 112.844C9.27083 110.844 8.90625 108.656 8.90625 106.281V104.969C8.90625 102.219 9.3125 99.7708 10.125 97.625C10.9375 95.4583 12.0417 93.625 13.4375 92.125C14.8333 90.625 16.4167 89.4896 18.1875 88.7188C19.9583 87.9479 21.7917 87.5625 23.6875 87.5625C26.1042 87.5625 28.1875 87.9792 29.9375 88.8125C31.7083 89.6458 33.1562 90.8125 34.2812 92.3125C35.4062 93.7917 36.2396 95.5417 36.7812 97.5625C37.3229 99.5625 37.5938 101.75 37.5938 104.125V106.719H12.3438V102H31.8125V101.562C31.7292 100.062 31.4167 98.6042 30.875 97.1875C30.3542 95.7708 29.5208 94.6042 28.375 93.6875C27.2292 92.7708 25.6667 92.3125 23.6875 92.3125C22.375 92.3125 21.1667 92.5938 20.0625 93.1562C18.9583 93.6979 18.0104 94.5104 17.2188 95.5938C16.4271 96.6771 15.8125 98 15.375 99.5625C14.9375 101.125 14.7188 102.927 14.7188 104.969V106.281C14.7188 107.885 14.9375 109.396 15.375 110.812C15.8333 112.208 16.4896 113.438 17.3438 114.5C18.2188 115.562 19.2708 116.396 20.5 117C21.75 117.604 23.1667 117.906 24.75 117.906C26.7917 117.906 28.5208 117.49 29.9375 116.656C31.3542 115.823 32.5938 114.708 33.6562 113.312L37.1562 116.094C36.4271 117.198 35.5 118.25 34.375 119.25C33.25 120.25 31.8646 121.062 30.2188 121.688C28.5938 122.312 26.6667 122.625 24.4375 122.625ZM74.6075 107.531H80.6075C80.295 110.406 79.4721 112.979 78.1387 115.25C76.8054 117.521 74.92 119.323 72.4825 120.656C70.045 121.969 67.0033 122.625 63.3575 122.625C60.6908 122.625 58.2637 122.125 56.0762 121.125C53.9096 120.125 52.045 118.708 50.4825 116.875C48.92 115.021 47.7117 112.802 46.8575 110.219C46.0242 107.615 45.6075 104.719 45.6075 101.531V97C45.6075 93.8125 46.0242 90.9271 46.8575 88.3438C47.7117 85.7396 48.9304 83.5104 50.5137 81.6562C52.1179 79.8021 54.045 78.375 56.295 77.375C58.545 76.375 61.0762 75.875 63.8887 75.875C67.3262 75.875 70.2325 76.5208 72.6075 77.8125C74.9825 79.1042 76.8262 80.8958 78.1387 83.1875C79.4721 85.4583 80.295 88.0938 80.6075 91.0938H74.6075C74.3158 88.9688 73.7742 87.1458 72.9825 85.625C72.1908 84.0833 71.0658 82.8958 69.6075 82.0625C68.1492 81.2292 66.2429 80.8125 63.8887 80.8125C61.8679 80.8125 60.0867 81.1979 58.545 81.9688C57.0242 82.7396 55.7429 83.8333 54.7012 85.25C53.6804 86.6667 52.9096 88.3646 52.3887 90.3438C51.8679 92.3229 51.6075 94.5208 51.6075 96.9375V101.531C51.6075 103.76 51.8367 105.854 52.295 107.812C52.7742 109.771 53.4929 111.49 54.4512 112.969C55.4096 114.448 56.6283 115.615 58.1075 116.469C59.5867 117.302 61.3367 117.719 63.3575 117.719C65.92 117.719 67.9617 117.312 69.4825 116.5C71.0033 115.688 72.1492 114.521 72.92 113C73.7117 111.479 74.2742 109.656 74.6075 107.531ZM96.1525 74V122H90.34V74H96.1525ZM121.385 122.625C119.031 122.625 116.895 122.229 114.979 121.438C113.083 120.625 111.448 119.49 110.073 118.031C108.718 116.573 107.677 114.844 106.948 112.844C106.218 110.844 105.854 108.656 105.854 106.281V104.969C105.854 102.219 106.26 99.7708 107.073 97.625C107.885 95.4583 108.989 93.625 110.385 92.125C111.781 90.625 113.364 89.4896 115.135 88.7188C116.906 87.9479 118.739 87.5625 120.635 87.5625C123.052 87.5625 125.135 87.9792 126.885 88.8125C128.656 89.6458 130.104 90.8125 131.229 92.3125C132.354 93.7917 133.187 95.5417 133.729 97.5625C134.27 99.5625 134.541 101.75 134.541 104.125V106.719H109.291V102H128.76V101.562C128.677 100.062 128.364 98.6042 127.823 97.1875C127.302 95.7708 126.468 94.6042 125.323 93.6875C124.177 92.7708 122.614 92.3125 120.635 92.3125C119.323 92.3125 118.114 92.5938 117.01 93.1562C115.906 93.6979 114.958 94.5104 114.166 95.5938C113.375 96.6771 112.76 98 112.323 99.5625C111.885 101.125 111.666 102.927 111.666 104.969V106.281C111.666 107.885 111.885 109.396 112.323 110.812C112.781 112.208 113.437 113.438 114.291 114.5C115.166 115.562 116.218 116.396 117.448 117C118.698 117.604 120.114 117.906 121.698 117.906C123.739 117.906 125.468 117.49 126.885 116.656C128.302 115.823 129.541 114.708 130.604 113.312L134.104 116.094C133.375 117.198 132.448 118.25 131.323 119.25C130.198 120.25 128.812 121.062 127.166 121.688C125.541 122.312 123.614 122.625 121.385 122.625ZM148.992 93.5V122H143.211V88.1875H148.836L148.992 93.5ZM159.555 88L159.524 93.375C159.045 93.2708 158.586 93.2083 158.149 93.1875C157.732 93.1458 157.253 93.125 156.711 93.125C155.378 93.125 154.201 93.3333 153.18 93.75C152.159 94.1667 151.295 94.75 150.586 95.5C149.878 96.25 149.315 97.1458 148.899 98.1875C148.503 99.2083 148.242 100.333 148.117 101.562L146.492 102.5C146.492 100.458 146.69 98.5417 147.086 96.75C147.503 94.9583 148.138 93.375 148.992 92C149.847 90.6042 150.93 89.5208 152.242 88.75C153.576 87.9583 155.159 87.5625 156.992 87.5625C157.409 87.5625 157.888 87.6146 158.43 87.7188C158.972 87.8021 159.347 87.8958 159.555 88Z" fill="#48BF84"/>
<path d="M170.725 88.1875L178.131 100.5L185.631 88.1875H192.413L181.35 104.875L192.756 122H186.069L178.256 109.312L170.444 122H163.725L175.1 104.875L164.069 88.1875H170.725Z" fill="url(#paint0_linear_226_227)"/>
<defs>
<linearGradient id="paint0_linear_226_227" x1="100.5" y1="63" x2="100.5" y2="138" gradientUnits="userSpaceOnUse">
<stop offset="0.428731" stop-color="#48BF84"/>
<stop offset="1" stop-color="#48BF84" stop-opacity="0"/>
</linearGradient>
</defs>
</svg>
