<svg width="200" height="200" viewBox="0 0 200 200" fill="none" xmlns="http://www.w3.org/2000/svg">
<path d="M34.5 81.8629C34 82.6629 28.3 98.0629 23.9 110.663L22 115.963H36.8H51.6L52.7 113.463C55.1 108.163 54.8 107.963 43.4 107.963C37.6 107.963 32.9 107.763 32.9 107.563C32.9 107.263 33.3 105.963 33.9 104.563C34.8 101.963 35 101.963 45.8 101.963H56.7L57.8 98.8629C58.4 97.0629 58.9 95.4629 58.9 95.3629C58.9 95.1629 54.2 94.9629 48.4 94.9629C42.6 94.9629 37.9 94.6629 37.9 94.1629C37.9 93.7629 38.2 92.4629 38.5 91.1629C39.1 89.0629 39.6 88.9629 50.4 88.9629H61.7L62.8 85.8629C63.4 84.0629 63.9 82.2629 63.9 81.8629C63.9 80.6629 35.2 80.7629 34.5 81.8629Z" fill="#48BF84"/>
<path d="M66.3996 82.2C66.0996 82.9 63.2996 90.7 59.9996 99.5L54.0996 115.5L57.6996 115.8C61.7996 116.2 62.0996 115.8 64.9996 107C67.4996 99.8 68.0996 100.3 69.2996 110.2C69.9996 115.7 70.1996 116 72.6996 116C74.8996 116 76.7996 114.4 81.7996 108.5C85.3996 104.4 88.3996 101.1 88.5996 101.3C88.7996 101.5 87.7996 104.7 86.3996 108.4C84.9996 112 83.8996 115.3 83.8996 115.5C83.8996 115.8 85.5996 116 87.6996 116H91.3996L97.2996 99.7C100.5 90.8 103.4 82.9 103.6 82.2C104 81.4 102.9 81 100.1 81C96.2996 81 95.7996 81.4 87.2996 91.5C82.3996 97.3 78.0996 102 77.7996 102C77.4996 102 76.5996 97.3 75.8996 91.5L74.6996 81H70.7996C68.4996 81 66.5996 81.5 66.3996 82.2Z" fill="#48BF84"/>
<path d="M100.501 97.2C97.2008 106.2 94.4008 114.1 94.1008 114.7C93.8008 115.6 94.9008 116 97.5008 116H101.401L107.301 99.7C110.501 90.8 113.401 82.9 113.601 82.2C114.001 81.4 112.901 81 110.201 81H106.301L100.501 97.2Z" fill="#48BF84"/>
<path d="M110.6 96.9C107.5 105.7 104.6 113.5 104.3 114.4C103.8 115.7 104.4 116 107.7 116C111.7 116 111.8 115.9 113.4 111C114.4 107.9 116.1 105.3 117.9 104L120.7 102L123.4 109L126.1 116H130.9H135.8L133.4 109.7C132.1 106.3 130.6 102.2 130 100.7C129.4 99.1 128.9 97.3 128.9 96.7C128.9 96 133.3 92.3 138.5 88.5L148 81.5L143 81.2C138.2 80.9 137.6 81.2 129.3 87.5C124.5 91.1 120.4 93.8 120.1 93.6C119.9 93.3 120.6 90.6 121.8 87.5C123 84.4 123.9 81.7 123.9 81.5C123.9 81.2 122.2 81 120.1 81H116.3L110.6 96.9Z" fill="#48BF84"/>
<path d="M154.401 82.2004C138.001 88.3004 130.301 108.5 142.001 114.6C155.001 121.3 176.501 103.7 172.701 89.4004C171.001 82.7004 162.201 79.2004 154.401 82.2004ZM163.101 90.7004C168.701 95.7004 160.901 108 152.001 108C144.501 108 142.401 100.9 148.101 94.4004C152.901 88.9004 159.401 87.3004 163.101 90.7004Z" fill="#48BF84"/>
<path d="M176.355 76.174C177.167 76.174 177.895 76.363 178.539 76.741C179.183 77.105 179.687 77.616 180.051 78.274C180.415 78.918 180.597 79.646 180.597 80.458C180.597 81.27 180.415 82.005 180.051 82.663C179.687 83.321 179.183 83.839 178.539 84.217C177.895 84.581 177.167 84.763 176.355 84.763C175.529 84.763 174.794 84.581 174.15 84.217C173.506 83.839 173.002 83.321 172.638 82.663C172.274 82.005 172.092 81.27 172.092 80.458C172.092 79.646 172.274 78.918 172.638 78.274C173.002 77.616 173.506 77.105 174.15 76.741C174.794 76.363 175.529 76.174 176.355 76.174ZM176.355 83.923C177.363 83.923 178.175 83.601 178.791 82.957C179.421 82.313 179.736 81.48 179.736 80.458C179.736 79.436 179.421 78.603 178.791 77.959C178.175 77.315 177.363 76.993 176.355 76.993C175.333 76.993 174.514 77.315 173.898 77.959C173.296 78.603 172.995 79.436 172.995 80.458C172.995 81.48 173.296 82.313 173.898 82.957C174.514 83.601 175.333 83.923 176.355 83.923ZM178.245 79.576C178.245 79.912 178.154 80.199 177.972 80.437C177.804 80.661 177.566 80.822 177.258 80.92L178.434 82.663L177.111 82.684L176.103 81.004H175.746V82.684H174.654V78.169H176.67C177.146 78.169 177.524 78.295 177.804 78.547C178.098 78.799 178.245 79.142 178.245 79.576ZM175.746 80.101H176.607C176.761 80.101 176.887 80.059 176.985 79.975C177.097 79.891 177.153 79.772 177.153 79.618C177.153 79.464 177.097 79.352 176.985 79.282C176.887 79.198 176.761 79.156 176.607 79.156H175.746V80.101Z" fill="#48BF84"/>
<path d="M27.24 122.82C27.1733 123.227 27.0067 123.567 26.74 123.84C26.48 124.107 26.16 124.3 25.78 124.42C26.1 124.487 26.3567 124.647 26.55 124.9C26.75 125.153 26.85 125.453 26.85 125.8C26.85 125.893 26.84 125.997 26.82 126.11C26.7267 126.677 26.44 127.133 25.96 127.48C25.4867 127.827 24.8933 128 24.18 128H21.17L22.41 121.02H25.29C25.9233 121.02 26.41 121.153 26.75 121.42C27.0967 121.687 27.27 122.043 27.27 122.49C27.27 122.597 27.26 122.707 27.24 122.82ZM25.78 123.03C25.7867 122.99 25.79 122.93 25.79 122.85C25.79 122.617 25.7133 122.437 25.56 122.31C25.4067 122.183 25.1833 122.12 24.89 122.12H23.62L23.3 123.92H24.58C24.9067 123.92 25.1767 123.843 25.39 123.69C25.6033 123.53 25.7333 123.31 25.78 123.03ZM25.43 125.94C25.4433 125.847 25.45 125.78 25.45 125.74C25.45 125.5 25.3633 125.313 25.19 125.18C25.0233 125.04 24.79 124.97 24.49 124.97H23.11L22.78 126.89H24.19C24.53 126.89 24.81 126.807 25.03 126.64C25.25 126.473 25.3833 126.24 25.43 125.94ZM32.1158 126.67H29.3258L28.6358 128H27.1658L30.9158 121.01H32.5458L33.8158 128H32.3358L32.1158 126.67ZM31.9358 125.58L31.4358 122.62L29.8958 125.58H31.9358ZM40.744 121.02L40.544 122.12H38.694L37.654 128H36.244L37.284 122.12H35.424L35.624 121.02H40.744ZM46.5155 121.02L46.3155 122.12H44.4655L43.4255 128H42.0155L43.0555 122.12H41.1955L41.3955 121.02H46.5155ZM48.747 122.11L48.427 123.92H50.777L50.587 125H48.237L47.907 126.89H50.557L50.357 128H46.297L47.537 121.01H51.587L51.397 122.11H48.747ZM55.4792 121.02C56.1926 121.02 56.7326 121.183 57.0992 121.51C57.4659 121.83 57.6492 122.25 57.6492 122.77C57.6492 122.897 57.6392 123.027 57.6192 123.16C57.5392 123.613 57.3326 124.027 56.9992 124.4C56.6726 124.767 56.2326 125.023 55.6792 125.17L56.8492 128H55.2192L54.1792 125.28H53.5092L53.0292 128H51.6192L52.8592 121.02H55.4792ZM56.1792 123.19C56.1926 123.07 56.1992 122.99 56.1992 122.95C56.1992 122.697 56.1192 122.5 55.9592 122.36C55.7992 122.22 55.5559 122.15 55.2292 122.15H54.0592L53.6892 124.24H54.8592C55.2326 124.24 55.5292 124.147 55.7492 123.96C55.9759 123.773 56.1192 123.517 56.1792 123.19ZM60.6655 121.02L59.4355 128H58.0255L59.2655 121.02H60.6655ZM63.2587 122.11L62.9387 123.92H65.2887L65.0987 125H62.7487L62.4187 126.89H65.0687L64.8687 128H60.8087L62.0487 121.01H66.0987L65.9087 122.11H63.2587ZM68.7809 128.07C68.0809 128.07 67.5043 127.913 67.0509 127.6C66.6043 127.28 66.3809 126.833 66.3809 126.26C66.3809 126.2 66.3876 126.11 66.4009 125.99H67.8309C67.8043 126.27 67.8776 126.5 68.0509 126.68C68.2309 126.86 68.4909 126.95 68.8309 126.95C69.1709 126.95 69.4376 126.88 69.6309 126.74C69.8309 126.593 69.9309 126.387 69.9309 126.12C69.9309 125.873 69.8276 125.677 69.6209 125.53C69.4209 125.383 69.1043 125.22 68.6709 125.04C68.2709 124.873 67.9443 124.72 67.6909 124.58C67.4443 124.44 67.2309 124.247 67.0509 124C66.8776 123.747 66.7909 123.43 66.7909 123.05C66.7909 122.617 66.9009 122.24 67.1209 121.92C67.3476 121.6 67.6543 121.353 68.0409 121.18C68.4343 121.007 68.8809 120.92 69.3809 120.92C69.8743 120.92 70.3009 121.003 70.6609 121.17C71.0276 121.33 71.3009 121.56 71.4809 121.86C71.6676 122.16 71.7476 122.51 71.7209 122.91H70.2309L70.2409 122.8C70.2409 122.58 70.1576 122.4 69.9909 122.26C69.8309 122.12 69.6043 122.05 69.3109 122.05C68.9976 122.05 68.7443 122.123 68.5509 122.27C68.3576 122.417 68.2609 122.617 68.2609 122.87C68.2609 123.037 68.3143 123.183 68.4209 123.31C68.5343 123.43 68.6709 123.537 68.8309 123.63C68.9909 123.717 69.2209 123.83 69.5209 123.97C69.9143 124.143 70.2376 124.307 70.4909 124.46C70.7443 124.613 70.9609 124.817 71.1409 125.07C71.3209 125.323 71.4109 125.633 71.4109 126C71.4109 126.4 71.3009 126.757 71.0809 127.07C70.8676 127.383 70.5609 127.63 70.1609 127.81C69.7676 127.983 69.3076 128.07 68.7809 128.07Z" fill="#48BF84"/>
</svg>
