<svg width="200" height="200" viewBox="0 0 200 200" fill="none" xmlns="http://www.w3.org/2000/svg">
<path d="M78.5731 98.8C72.0731 114.6 66.5731 128.3 66.1731 129.3C65.5731 130.9 66.1731 131.1 73.8731 130.8L82.1731 130.5L84.9731 124L87.6731 117.5L99.5731 117.2L111.573 116.9L114.473 124L117.273 131H125.673C131.873 131 133.873 130.7 133.473 129.7C133.273 129.1 129.773 120.5 125.773 110.7L118.473 93H110.173H101.773L102.773 95.6C103.373 97 104.273 99 104.773 100.1C105.773 101.9 105.473 102 99.8731 102H93.8731L97.2731 93.7C99.1731 89.2 101.773 84.7 102.873 83.7C104.973 82 104.973 81.9 103.273 80.6C101.473 79.3 101.573 79.1 104.473 77.6C109.073 75.3 109.173 74.4 105.373 72.1C102.973 70.6 100.373 70 96.1731 70H90.2731L78.5731 98.8Z" fill="#48BF84"/>
<path d="M110.773 72C110.773 72.5 111.273 73 111.773 73C112.373 73 112.773 72.5 112.773 72C112.773 71.4 112.373 71 111.773 71C111.273 71 110.773 71.4 110.773 72Z" fill="#48BF84"/>
<path d="M118.773 74.5C118.773 78.5 118.973 78.6 122.873 76.3L125.673 74.6L122.673 72.8C118.773 70.4 118.773 70.4 118.773 74.5Z" fill="#48BF84"/>
<path d="M114.372 74.4999C114.772 75.3999 115.472 75.8999 115.972 75.7999C117.472 75.2999 117.072 73.4999 115.372 73.1999C114.272 72.9999 113.972 73.3999 114.372 74.4999Z" fill="#48BF84"/>
<path d="M110.773 79.4999C110.773 83.4999 111.273 83.6999 114.673 81.0999L117.073 79.2999L114.673 77.5999C111.373 75.2999 110.773 75.5999 110.773 79.4999Z" fill="#48BF84"/>
<path d="M105.773 79.4998C105.773 81.1998 106.673 81.3998 108.573 80.0998C109.673 79.3998 109.573 79.0998 108.273 78.5998C105.973 77.6998 105.773 77.7998 105.773 79.4998Z" fill="#48BF84"/>
<path d="M118.773 82C118.773 83.9 119.073 84.1 119.973 83.2C120.873 82.3 120.873 81.7 119.973 80.8C119.073 79.9 118.773 80.1 118.773 82Z" fill="#48BF84"/>
<circle cx="100" cy="100" r="54.5" stroke="#48BF84" stroke-opacity="0.54"/>
</svg>
