<svg width="200" height="200" viewBox="0 0 200 200" fill="none" xmlns="http://www.w3.org/2000/svg">
<path d="M97.4241 74.9929C95.2818 75.3714 93.1614 76.1299 91.3757 77.3895C78.525 86.4546 87.0237 107.391 102.608 104.636C104.794 104.25 106.836 103.495 108.657 102.209C121.431 93.1858 112.951 72.2493 97.4241 74.9929Z" fill="#48BF84" fill-opacity="0.4"/>
<path d="M98.5751 78.1539C96.4697 78.4826 94.5074 79.1534 92.8147 80.481C83.8011 87.551 89.6542 103.361 101.455 101.519C103.663 101.174 105.766 100.399 107.503 98.9582C116.182 91.7669 110.13 76.3499 98.5751 78.1539Z" fill="#48BF84"/>
<path d="M82.2783 80.917C81.3163 81.5298 80.9496 83.335 80.6878 84.3639C79.7895 87.8946 79.7762 91.4794 80.6181 95.0206C80.9346 96.3516 81.7469 99.9752 83.8425 98.7557C85.4917 97.7957 83.7829 95.1721 83.4476 93.8686C82.8145 91.4054 82.7953 88.5671 83.3779 86.092C83.6708 84.8488 84.6662 83.3448 84.5637 82.0653C84.4782 80.9962 83.2017 80.3287 82.2783 80.917Z" fill="#48BF84"/>
<path d="M116.188 80.8345C114.453 81.5898 116.172 84.3249 116.506 85.5158C117.219 88.0583 117.258 91.0115 116.653 93.5803C116.347 94.8793 115.444 96.2667 115.418 97.6C115.397 98.6795 116.562 99.2641 117.52 98.8745C118.667 98.4081 119.072 96.3756 119.343 95.3085C120.22 91.8623 120.22 87.8098 119.343 84.3637C118.984 82.9532 118.27 79.9278 116.188 80.8345Z" fill="#48BF84"/>
<path d="M86.6636 103.34C86.1086 103.473 85.6354 103.892 85.229 104.268C81.981 107.278 87.0066 109.774 89.5438 111.043C95.1058 113.824 101.803 114.159 107.689 112.293C110.525 111.394 113.954 109.844 115.916 107.523C117.201 106.004 115.212 103.381 113.45 103.297C111.88 103.222 109.897 105.43 108.553 106.163C105.638 107.755 102.078 108.542 98.7605 108.22C95.8883 107.942 93.1248 107.038 90.6959 105.476C89.6357 104.794 88.0386 103.012 86.6636 103.34Z" fill="#48BF84"/>
<path d="M113.707 76.121C114.263 75.9888 114.736 75.5697 115.142 75.193C118.39 72.1831 113.364 69.6871 110.827 68.4184C105.265 65.6376 98.5685 65.3023 92.682 67.1681C89.8458 68.067 86.4175 69.6177 84.4555 71.938C83.1704 73.4579 85.1586 76.0801 86.9216 76.1642C88.4913 76.239 90.4746 74.0316 91.8179 73.2981C94.733 71.7067 98.2935 70.9199 101.611 71.241C104.483 71.519 107.246 72.4239 109.675 73.9853C110.735 74.667 112.332 76.449 113.707 76.121Z" fill="#48BF84"/>
<path d="M51.0098 124.936V140.785H48.2852V124.936H51.0098ZM48.0801 120.731C48.0801 120.292 48.2119 119.921 48.4756 119.618C48.749 119.315 49.1494 119.164 49.6768 119.164C50.1943 119.164 50.5898 119.315 50.8633 119.618C51.1465 119.921 51.2881 120.292 51.2881 120.731C51.2881 121.151 51.1465 121.513 50.8633 121.815C50.5898 122.108 50.1943 122.255 49.6768 122.255C49.1494 122.255 48.749 122.108 48.4756 121.815C48.2119 121.513 48.0801 121.151 48.0801 120.731ZM72.1768 119.457V140.785H69.335L58.5977 124.335V140.785H55.7705V119.457H58.5977L69.3789 135.951V119.457H72.1768ZM83.3535 141.078C82.25 141.078 81.249 140.893 80.3506 140.521C79.4619 140.141 78.6953 139.608 78.0508 138.925C77.416 138.241 76.9277 137.431 76.5859 136.493C76.2441 135.556 76.0732 134.53 76.0732 133.417V132.802C76.0732 131.513 76.2637 130.365 76.6445 129.359C77.0254 128.344 77.543 127.484 78.1973 126.781C78.8516 126.078 79.5938 125.546 80.4238 125.185C81.2539 124.823 82.1133 124.643 83.002 124.643C84.1348 124.643 85.1113 124.838 85.9316 125.229C86.7617 125.619 87.4404 126.166 87.9678 126.869C88.4951 127.562 88.8857 128.383 89.1396 129.33C89.3936 130.268 89.5205 131.293 89.5205 132.406V133.622H77.6846V131.41H86.8105V131.205C86.7715 130.502 86.625 129.818 86.3711 129.154C86.127 128.49 85.7363 127.943 85.1992 127.514C84.6621 127.084 83.9297 126.869 83.002 126.869C82.3867 126.869 81.8203 127.001 81.3027 127.265C80.7852 127.519 80.3408 127.899 79.9697 128.407C79.5986 128.915 79.3105 129.535 79.1055 130.268C78.9004 131 78.7979 131.845 78.7979 132.802V133.417C78.7979 134.169 78.9004 134.877 79.1055 135.541C79.3203 136.195 79.6279 136.771 80.0283 137.27C80.4385 137.768 80.9316 138.158 81.5078 138.441C82.0938 138.725 82.7578 138.866 83.5 138.866C84.457 138.866 85.2676 138.671 85.9316 138.28C86.5957 137.89 87.1768 137.367 87.6748 136.713L89.3154 138.017C88.9736 138.534 88.5391 139.027 88.0117 139.496C87.4844 139.965 86.835 140.346 86.0635 140.639C85.3018 140.932 84.3984 141.078 83.3535 141.078ZM102.382 137.123V124.936H105.106V140.785H102.514L102.382 137.123ZM102.895 133.783L104.022 133.754C104.022 134.809 103.91 135.785 103.686 136.684C103.471 137.572 103.119 138.344 102.631 138.998C102.143 139.652 101.503 140.165 100.712 140.536C99.9209 140.897 98.959 141.078 97.8262 141.078C97.0547 141.078 96.3467 140.966 95.7021 140.741C95.0674 140.517 94.5205 140.17 94.0615 139.701C93.6025 139.232 93.2461 138.622 92.9922 137.87C92.748 137.118 92.626 136.215 92.626 135.16V124.936H95.3359V135.189C95.3359 135.902 95.4141 136.493 95.5703 136.962C95.7363 137.421 95.9561 137.787 96.2295 138.061C96.5127 138.324 96.8252 138.51 97.167 138.617C97.5186 138.725 97.8799 138.778 98.251 138.778C99.4033 138.778 100.316 138.559 100.99 138.119C101.664 137.67 102.147 137.069 102.44 136.317C102.743 135.556 102.895 134.711 102.895 133.783ZM111.947 127.426V140.785H109.237V124.936H111.874L111.947 127.426ZM116.898 124.848L116.884 127.367C116.659 127.318 116.444 127.289 116.239 127.279C116.044 127.26 115.819 127.25 115.565 127.25C114.94 127.25 114.389 127.348 113.91 127.543C113.432 127.738 113.026 128.012 112.694 128.363C112.362 128.715 112.099 129.135 111.903 129.623C111.718 130.102 111.596 130.629 111.537 131.205L110.775 131.645C110.775 130.688 110.868 129.789 111.054 128.949C111.249 128.109 111.547 127.367 111.947 126.723C112.348 126.068 112.855 125.561 113.471 125.199C114.096 124.828 114.838 124.643 115.697 124.643C115.893 124.643 116.117 124.667 116.371 124.716C116.625 124.755 116.801 124.799 116.898 124.848Z" fill="#48BF84"/>
<circle cx="128" cy="131.785" r="9" fill="#48BF84"/>
<path d="M141.775 128.319V140.785H139.065V124.936H141.629L141.775 128.319ZM141.131 132.26L140.003 132.216C140.013 131.132 140.174 130.131 140.486 129.213C140.799 128.285 141.238 127.479 141.805 126.796C142.371 126.112 143.045 125.585 143.826 125.214C144.617 124.833 145.491 124.643 146.448 124.643C147.229 124.643 147.933 124.75 148.558 124.965C149.183 125.17 149.715 125.502 150.154 125.961C150.604 126.42 150.945 127.016 151.18 127.748C151.414 128.471 151.531 129.354 151.531 130.399V140.785H148.807V130.37C148.807 129.54 148.685 128.876 148.44 128.378C148.196 127.87 147.84 127.504 147.371 127.279C146.902 127.045 146.326 126.928 145.643 126.928C144.969 126.928 144.354 127.069 143.797 127.353C143.25 127.636 142.776 128.026 142.376 128.524C141.985 129.022 141.678 129.594 141.453 130.238C141.238 130.873 141.131 131.547 141.131 132.26Z" fill="#48BF84"/>
</svg>
