<svg width="200" height="200" viewBox="0 0 200 200" fill="none" xmlns="http://www.w3.org/2000/svg">
<path d="M174.273 80.0444C176.851 80.0444 179.11 77.9016 179.11 75.1694C179.11 72.5712 176.984 70.2944 174.273 70.2944C171.695 70.2944 169.435 72.4373 169.435 75.1694C169.568 77.9016 171.695 80.0444 174.273 80.0444ZM170.286 75.1962C170.286 72.9462 172.173 71.0444 174.406 71.0444C176.638 71.0444 178.525 72.9462 178.525 75.1962C178.525 77.4462 176.638 79.348 174.406 79.348C172.04 79.348 170.286 77.4462 170.286 75.1962ZM172.519 77.6873H173.449V75.5444H174.512L175.336 77.5534H176.399L175.469 75.3034C175.814 75.1962 176.293 74.9551 176.293 73.9909C176.293 72.5712 175.23 72.3301 174.299 72.3301H172.651V77.6605H172.519V77.6873ZM173.449 73.4016H174.512C175.097 73.4016 175.336 73.6426 175.336 74.1248C175.336 74.6069 174.99 74.848 174.512 74.848H173.449V73.4016ZM20.8906 77.3123V71.6337H26.5518V77.3391V113.286V113.393V118.964H20.8906V113.259V113.152V77.3123ZM78.4587 101.768C78.565 110.419 83.8807 117.303 90.3391 117.196C96.8242 117.089 101.874 109.964 101.768 101.419C101.661 92.7677 96.3458 85.8837 89.8873 85.9909C83.4023 86.098 78.3258 93.0891 78.4587 101.768ZM125.316 91.3212C125.422 91.6694 125.077 90.8391 125.077 90.8391L125.316 91.3212ZM129.196 127.027C129.435 126.544 129.781 125.955 130.259 125.018L129.196 127.027ZM129.542 88.348C129.648 88.5891 129.648 88.6962 129.781 88.9373L131.668 93.6784L129.542 88.348ZM105.754 112.08C109.289 115.294 112.346 116.955 116.465 116.955C120.585 116.955 124.226 114.946 124.226 111.036C124.226 107.714 121.409 105.812 116.226 103.669C111.867 101.768 108.705 100.455 106.924 97.7498C107.163 98.9284 107.269 100.134 107.269 101.419C107.269 111.973 99.6149 120.518 90.2062 120.518C80.7976 120.518 73.1431 111.973 73.1431 101.419C73.1431 95.0177 75.9604 89.4462 80.2129 85.8837H68.678V113.286V113.393V119.098H63.6282V113.634C63.6282 113.527 63.6282 113.393 63.6282 113.393V85.8569H59.1631V82.4284H63.7611C64.3458 75.4373 68.5983 71.5266 74.5783 71.5266C78.4587 71.5266 80.585 71.8748 81.7544 72.4641V77.2051C81.7544 77.5534 81.7544 77.7944 81.7544 77.7944H81.5152C79.6282 76.0266 77.874 74.8212 73.6215 74.8212C70.2195 74.8212 67.9604 77.5534 68.7843 82.4016H87.9737C88.7976 82.2944 89.6215 82.1605 90.4454 82.1605C97.276 82.1605 103.15 86.6605 105.861 93.1962C105.861 92.848 105.861 92.473 105.861 92.0177C105.861 85.2677 112.452 82.2944 119.15 82.2944C119.389 82.2944 119.628 82.2944 119.867 82.2944C122.233 82.2944 125.635 83.0177 127.761 83.6069L129.648 88.2409L131.774 93.5712L137.435 107.794L138.153 110.044L138.871 107.794L146.18 89.6337C147.482 84.6516 152.877 82.5087 158.645 82.5087C161.595 82.5087 163.695 82.8569 166.299 83.8212V89.3123C163.11 86.9284 160.877 85.6426 157.236 85.6426C154.047 85.6426 150.299 87.0623 150.299 91.8034C150.193 95.3659 152.293 95.9551 158.538 99.0355C163.588 101.286 168.319 103.669 168.319 109.348C168.319 118.83 159.017 120.491 154.552 120.491C150.538 120.491 146.791 119.553 144.771 117.759V111.464L145.117 111.705C148.758 115.134 152.053 116.928 156.173 116.928C160.293 116.928 163.934 114.919 163.934 111.009C163.934 107.687 161.117 105.786 155.934 103.643C150.99 101.5 147.801 100.08 146.525 96.5176C144.532 101.393 135.229 124.268 132.997 129.143H128.053L129.223 126.893L130.286 124.884V124.777C131.588 122.286 133.342 118.375 134.99 114.571L125.342 91.0802C125.236 90.973 125.103 90.598 124.758 89.9016C124.04 88.2409 123.349 86.5802 121.223 85.8569C120.16 85.5087 118.857 85.2676 117.582 85.2676C114.392 85.2676 110.406 86.6873 110.406 91.4284C110.299 94.9909 112.638 95.5801 118.884 98.6605C123.934 100.911 128.665 103.294 128.665 108.973C128.665 118.455 119.362 120.116 114.897 120.116C111.362 120.116 107.96 119.286 105.834 117.973L105.754 112.08ZM37.1298 82.7766L37.2361 86.9284V87.1694C37.3425 87.0623 37.3425 86.8212 37.4753 86.6873C39.6016 84.4373 42.1797 82.1873 48.4255 82.1873C54.4322 82.1873 58.2062 87.2766 58.4189 90.4909V113.152V113.259V118.964H53.369V112.214V92.8748C53.369 88.8301 49.8341 85.9909 45.6082 85.9909C42.0734 85.9909 37.4753 89.2051 37.369 92.5266V113.286V113.393V118.964H32.1863V113.259V87.5176V82.7766H33.1165H35.9338H37.1298Z" fill="#48BF84"/>
</svg>
