<svg width="200" height="200" viewBox="0 0 200 200" fill="none" xmlns="http://www.w3.org/2000/svg">
<path d="M30.697 85.4884V101.977L26.4632 116.247C24.1169 124.092 22.1588 130.712 22.1058 130.996L22 131.475L25.8634 131.439L29.7091 131.386L31.6497 124.855L33.5902 118.341H34.1723H34.7721L37.9828 124.855L41.1935 131.386L45.8331 131.439C48.4792 131.457 50.455 131.404 50.455 131.315C50.455 131.155 49.9258 130.037 46.4152 122.636C45.3391 120.364 44.4571 118.465 44.4571 118.43C44.4571 118.376 47.5972 118.341 51.4253 118.341C56.8411 118.341 58.3935 118.394 58.3935 118.554C58.3935 118.678 57.5644 121.553 56.5412 124.926C55.518 128.298 54.6889 131.155 54.6889 131.28C54.6889 131.422 55.8356 131.475 58.8346 131.475C62.5921 131.475 62.9802 131.439 63.1213 131.173C63.2095 130.996 64.1092 128.032 65.1148 124.606L66.9495 118.341H77.34H87.713L87.5895 118.838C87.3425 119.85 84.1142 131.031 84.0437 131.155C83.9907 131.244 85.896 131.297 88.2775 131.297C92.2291 131.297 92.5996 131.28 92.6878 130.996C92.8642 130.392 94.6989 123.754 95.4398 121.039L96.1807 118.341H98.0859H99.9735L100.079 121.571C100.15 123.328 100.203 126.257 100.203 128.049V131.297H103.802H107.4L108.441 129.647C109.023 128.759 110.876 125.831 112.534 123.169L115.586 118.341H118.303C119.802 118.341 121.019 118.359 121.019 118.376C121.002 118.412 120.384 121.305 119.643 124.819L118.267 131.209L122.413 131.262C125.253 131.297 126.594 131.244 126.664 131.102C126.735 130.996 126.964 130.02 127.194 128.937C127.599 126.914 128.235 123.896 128.975 120.329L129.381 118.341H131.798H134.197L134.303 120.063C134.691 126.31 137.708 129.931 143.812 131.493C145.929 132.043 152.156 132.167 155.949 131.759C158.754 131.439 161.717 130.978 164.099 130.463L165.44 130.179L165.704 129.185C165.845 128.635 166.516 125.973 167.168 123.257L168.386 118.341H173.184H178V93.6705V69H160.712H143.424V84.672V100.326L142.047 101.711C141.307 102.456 140.619 103.077 140.548 103.077C140.477 103.077 140.425 95.4099 140.425 86.0386V69H123.136H105.848L105.813 83.3231L105.76 97.6639L104.401 97.7172L103.025 97.7704V83.3763V69H85.649H68.2725V83.3763V97.7527H66.8612H65.45V83.3763V69H48.0735H30.697V85.4884ZM64.2151 84.743V99.2613L61.6395 107.958C60.2106 112.732 58.9757 116.761 58.8698 116.886C58.7464 117.045 56.9999 117.099 51.2136 117.099H43.7338L43.2046 115.909C42.9223 115.253 42.7106 114.632 42.7283 114.525C42.7635 114.401 46.38 110.603 50.7726 106.077L58.764 97.8414L53.5952 97.7882L48.4263 97.7349L47.1915 99.0483C45.7802 100.521 40.4878 106.272 37.7535 109.271C36.7479 110.372 35.8835 111.206 35.8659 111.117C35.8306 111.029 36.6774 108.011 37.7535 104.426C38.8119 100.859 39.694 97.8769 39.694 97.8414C39.694 97.7882 37.9828 97.7527 35.9012 97.7527C32.9904 97.7527 32.1083 97.6994 32.1083 97.5219C32.1083 97.1847 32.0907 70.8991 32.1083 70.5441C32.1083 70.2602 32.9904 70.2424 48.1617 70.2424H64.2151V84.743ZM101.755 83.9443L101.702 97.6639L97.6626 97.7527L93.6404 97.8414L93.3229 98.9063C93.1464 99.492 91.9116 103.769 90.5885 108.402C89.2654 113.034 88.1364 116.886 88.0482 116.974C87.9776 117.045 86.09 117.081 83.8672 117.063L79.8274 117.01L81.2387 116.3C83.2674 115.288 85.2432 113.283 86.2488 111.242C87.272 109.147 87.7306 106.822 87.6424 104.231C87.5895 102.509 87.5189 102.154 87.0603 101.231C86.1606 99.4033 84.6611 98.4271 82.0149 97.9124C81.274 97.7704 78.9454 97.6817 75.2408 97.6817L69.5956 97.6639L69.5427 83.9443L69.5074 70.2424H85.649H101.791L101.755 83.9443ZM139.19 87.565V104.888L138.219 106.467C136.438 109.36 135.115 112.821 134.585 115.892L134.391 117.099H132.133C130.881 117.099 129.822 117.045 129.787 116.957C129.752 116.886 130.299 114.081 131.004 110.709C131.71 107.337 132.574 103.255 132.909 101.622C133.262 99.989 133.58 98.4449 133.65 98.1964L133.756 97.7527H126.911H120.049L118.091 100.912C117.015 102.634 114.633 106.414 112.816 109.289C110.999 112.164 109.147 115.111 108.724 115.803C108.088 116.832 107.859 117.099 107.506 117.099H107.083V93.6705V70.2424H123.136H139.19V87.565ZM176.765 93.6705V117.099H172.796C169.127 117.099 168.827 117.081 168.827 116.779C168.827 116.619 169.109 115.412 169.426 114.117C169.85 112.448 169.973 111.721 169.832 111.668C169.709 111.632 166.057 111.614 161.7 111.632L153.761 111.685L153.285 113.638C153.038 114.703 152.72 115.927 152.615 116.335L152.403 117.099H148.539H144.658V116.229C144.658 115.199 145.329 112.413 145.911 111.064C148.257 105.598 151.45 102.9 156.125 102.438C157.501 102.314 159.212 102.687 160.2 103.343C161.012 103.876 161.594 105.047 161.594 106.148V106.982H166.427H171.261L171.455 106.094C171.931 103.876 171.526 101.427 170.45 99.847C168.527 97.0427 163.869 95.5873 157.625 95.8536C153.197 96.0488 150.021 96.7942 146.74 98.4449L144.658 99.4743V84.8495V70.2424H160.712H176.765V93.6705ZM78.6278 103.485C79.7745 104.107 79.9862 104.994 79.4746 107.017C78.3809 111.242 76.4756 112.484 71.0245 112.484C68.9429 112.484 68.9429 112.484 69.0311 112.076C69.0664 111.863 69.6133 109.751 70.2307 107.372L71.3597 103.059L74.7115 103.113C77.4812 103.166 78.1692 103.219 78.6278 103.485ZM100.026 111.242V117.099H98.3506C96.4806 117.099 96.5335 117.152 96.9216 115.75C97.0628 115.27 97.7331 112.839 98.4388 110.354C99.8853 105.154 99.8148 105.385 99.9383 105.385C99.9912 105.385 100.026 108.011 100.026 111.242ZM122.854 109.662C122.395 111.756 121.866 114.259 121.654 115.235L121.284 117.01L118.955 117.063C117.421 117.099 116.609 117.045 116.609 116.921C116.609 116.708 123.524 105.722 123.613 105.811C123.648 105.828 123.295 107.568 122.854 109.662ZM158.63 121.571C158.189 123.364 157.748 124.872 157.66 124.926C157.325 125.156 154.273 125.476 152.456 125.458C149.545 125.458 147.781 124.855 146.352 123.435C145.276 122.334 144.5 120.471 144.482 118.909V118.341H151.962H159.442L158.63 121.571Z" fill="#48BF84"/>
</svg>
