<svg width="200" height="200" viewBox="0 0 200 200" fill="none" xmlns="http://www.w3.org/2000/svg">
<path d="M13 99L18 95.5L5.5 89V78L30.5 92.5L0 109V116.5L42 92L0 68V92L13 99Z" fill="#48BF84"/>
<path d="M6 112.5L0 116V132.5L43 108.5L31.5 102L26 105.5L31 108.5L6 122.5V112.5Z" fill="#48BF84" fill-opacity="0.6"/>
<path d="M179.4 83.9112C176.7 85.0112 173 89.6112 173 92.0112C173 93.1112 172.3 93.9112 171.5 93.9112C170.4 93.9112 170 95.0112 170 97.9112C170 100.811 170.4 101.911 171.5 101.911C172.7 101.911 173 103.611 173 111.011V120.011L177.3 119.711L181.5 119.411L181.8 110.611C182.1 102.711 182.3 101.911 184 101.911C185.7 101.911 186 101.211 186 97.9112C186 94.6112 185.7 93.9112 184 93.9112C182.9 93.9112 182 93.4112 182 92.8112C182 92.2112 182.9 91.5112 184 91.2112C185.6 90.8112 186 89.8112 186 86.8112C186 83.4112 185.7 82.9112 183.8 83.0112C182.5 83.0112 180.5 83.4112 179.4 83.9112Z" fill="#48BF84"/>
<path d="M53 102.011V120.011L57.3 119.711L61.5 119.411L62 110.411L62.5 101.411L66.7 108.311L70.8 115.211L74.3 109.811C76.1 106.811 78.2 103.511 78.8 102.411C79.7 100.811 79.9 102.411 80 110.111V119.911H84.5H89V101.911V83.9112H84.5C80.1 83.9112 80.1 83.9112 75.9 90.9112C73.6 94.7112 71.4 97.9112 71 97.9112C70.6 97.9112 68.4 94.7112 66.1 90.9112C61.9 83.9112 61.9 83.9112 57.5 83.9112H53V102.011Z" fill="#48BF84"/>
<path d="M143.8 88.1111C140.7 88.9111 140 89.6111 140 91.5111C140 93.2111 139.4 93.9111 138 93.9111C136.3 93.9111 136 94.6111 136 97.9111C136 101.211 136.3 101.911 138 101.911C139.7 101.911 140 102.611 140 106.811C140 116.211 142.9 119.911 150.5 119.911C153.9 119.911 154 119.811 154 116.011C154 112.711 153.6 112.011 151.8 111.711C149.8 111.411 149.5 110.711 149.2 106.611C148.9 102.111 149 101.911 151.4 101.911C153.8 101.911 154 101.511 154 97.9111C154 94.3111 153.8 93.9111 151.5 93.9111C149.3 93.9111 149 93.5111 149 90.4111C149 88.5111 148.7 86.9111 148.3 87.0111C147.8 87.1111 145.8 87.6111 143.8 88.1111Z" fill="#48BF84"/>
<path d="M119.8 94.3112C118.2 95.1112 117 95.4112 117 94.8112C117 94.3112 115 93.9112 112.5 93.9112H107.9L108.2 106.611L108.5 119.411L112.8 119.711L117 120.011V111.511C117 104.011 117.2 102.811 119 101.911C120.4 101.111 121.6 101.111 123 101.911C124.8 102.811 125 104.011 125 111.411V119.911H129H133V109.511C133 100.011 132.8 98.8112 130.8 96.5112C127.9 93.3112 123.4 92.4112 119.8 94.3112Z" fill="#48BF84"/>
<path d="M95 106.911V119.911H99H103V106.911V93.9111H99H95V106.911Z" fill="#48BF84"/>
<path d="M158 107.011V120.011L162.3 119.711L166.5 119.411L166.8 106.611L167.1 93.9112H162.5H158V107.011Z" fill="#48BF84"/>
<path d="M189 106.911V119.911H193H197V106.911V93.9111H193H189V106.911Z" fill="#48BF84"/>
<circle cx="99" cy="87" r="4" fill="#48BF84"/>
<circle cx="162" cy="87" r="4" fill="#48BF84"/>
<circle cx="193" cy="87" r="4" fill="#48BF84"/>
</svg>
