<svg width="200" height="200" viewBox="0 0 200 200" fill="none" xmlns="http://www.w3.org/2000/svg">
<path d="M0 72.6C0 120.7 0.3 144.9 1 144.5C1.6 144.2 2 143.5 2 143.1C2 142 48.9 43.7 49.9 42.7C50.4 42.2 64.4 53.2 81.1 67.1C97.8 81 118.7 98.3 127.5 105.6C136.3 112.9 143.8 118.6 144.1 118.2C144.4 117.8 155.9 93.6 169.5 64.5C183.1 35.3 195.6 8.89999 197.1 5.7L200 0H100H0V72.6Z" fill="#48BF84"/>
<path d="M175.1 106C161.6 134.1 150.3 157.3 149.9 157.6C149.2 158 122.4 136.2 70.5 92.8L56.5 81.1L55.1 83.8C54.3 85.3 48.4 97.7 42 111.5C35.5 125.2 23.7 150.5 15.6 167.7C7.6 184.9 1 199.2 1 199.5C1 199.8 45.8 200 100.5 200H200V127.5C200 87.6 199.9 55 199.7 55C199.6 55 188.5 78 175.1 106Z" fill="#48BF84" fill-opacity="0.52"/>
</svg>
