<svg width="200" height="200" viewBox="0 0 200 200" fill="none" xmlns="http://www.w3.org/2000/svg">
<path d="M28 97.6667L28.3334 98.3333L28 97.6667ZM40.6667 97L41.6667 98L40.6667 97Z" fill="#A6AEB4"/>
<g clip-path="url(#clip0_223_378)">
<path d="M37.964 88.5709C38.577 81.3419 35 79.1509 35 79.1509C35 79.1509 35.844 82.2169 35.227 90.0819C34.807 95.4439 36.719 99.6009 37.83 102.168C37.988 102.532 38.525 102.249 38.425 101.871C37.418 98.0729 37.458 94.5479 37.964 88.5709Z" fill="#48BF84"/>
<path d="M55.1192 122.746C59.8122 118.466 66.4882 105.717 66.6112 96.051C65.5272 96.371 63.3782 97.528 62.5832 101.101C62.1262 103.153 60.8402 108.001 56.1042 107.583C49.5372 107.004 50.4892 94.589 60.7722 95.714C65.6322 96.246 66.4212 92.75 66.4212 92.282C65.3562 92.77 63.7522 92.566 62.2452 92.386C52.9802 91.272 48.5322 96.577 48.5322 102.632C48.5322 106.267 50.8952 109.32 53.5592 111.02C54.9762 111.922 53.9572 112.805 52.9042 112.046C50.1022 110.024 46.8302 107.352 46.8302 101.657C46.8302 92.148 56.5312 88.017 58.8102 86.319C62.1912 83.798 63.8202 81.717 62.9962 78.008C61.6582 80.471 58.3722 82.623 55.9202 83.926C49.2942 87.448 44.1002 92.576 44.1002 100.107C44.1002 106.033 46.7022 109.288 49.8282 111.808C50.5372 112.379 49.7862 113.179 48.8782 112.448C43.9032 108.438 42.2612 103.998 42.2612 98.293C42.2612 87.513 55.8532 77.766 49.7412 70.002C49.8262 77.929 39.5762 84.852 39.5762 97.966C39.5762 103.854 41.9402 109.698 48.5312 114.32C52.4142 117.044 52.9642 120.163 52.3962 122.985C52.1422 124.509 53.9882 123.777 55.1192 122.746Z" fill="#48BF84"/>
<path d="M91.2369 92.2778C90.4029 92.2778 89.6649 92.8938 89.5519 93.7328C89.4029 94.8428 90.4059 95.8078 91.5059 95.6288C92.4819 95.4698 93.1359 94.4608 92.8689 93.5038C92.6669 92.7738 91.9809 92.2778 91.2369 92.2778Z" fill="#48BF84"/>
<path d="M147.056 101.574C147.056 98.2608 145.516 97.0098 142.164 97.0098C139.668 97.0098 137.326 97.9318 137.326 98.8558C137.326 99.1738 137.621 100.002 138.099 100.552C139.277 99.8758 140.294 99.4058 141.64 99.4058C143.776 99.4058 143.81 100.385 143.81 101.598C140.312 101.598 136.576 102.334 136.576 105.815C136.576 108.142 137.972 109.563 140.395 109.563C142.083 109.563 143.02 108.942 144.059 108.264C144.503 109.689 146.507 109.487 147.56 109.019C147.162 108.382 147.054 107.7 147.054 106.176L147.056 101.574ZM143.812 106.24C143.129 106.886 142.405 107.236 141.518 107.236C139.411 107.236 139.319 104.896 140.57 104.055C141.356 103.528 142.799 103.367 143.812 103.367V106.24V106.24Z" fill="#48BF84"/>
<path d="M114.461 101.574C114.461 98.2608 112.922 97.0098 109.57 97.0098C107.074 97.0098 104.731 97.9318 104.731 98.8558C104.731 99.1738 105.026 100.002 105.505 100.552C106.683 99.8758 107.7 99.4058 109.046 99.4058C111.182 99.4058 111.216 100.385 111.216 101.598C107.718 101.598 103.982 102.334 103.982 105.815C103.982 108.142 105.377 109.563 107.801 109.563C109.489 109.563 110.426 108.942 111.464 108.264C111.909 109.689 113.913 109.487 114.966 109.019C114.568 108.382 114.46 107.7 114.46 106.176V101.574H114.461ZM111.218 106.24C110.535 106.886 109.811 107.236 108.924 107.236C106.817 107.236 106.725 104.896 107.976 104.055C108.762 103.528 110.205 103.367 111.218 103.367V106.24V106.24Z" fill="#48BF84"/>
<path d="M80.6932 92.2778H76.2012V109.265C76.3832 109.326 77.2992 109.382 77.5142 109.363C78.9052 109.327 79.5932 108.762 79.5932 107.5V103.196H80.8632C84.7352 103.196 87.6002 101.481 87.6002 97.3618C87.6002 93.4458 84.3002 92.2778 80.6932 92.2778ZM79.5952 100.777V94.7898C81.9812 94.5628 84.1082 94.9988 84.1082 97.5338C84.1082 100.722 81.9012 100.777 79.5952 100.777Z" fill="#48BF84"/>
<path d="M92.9291 107.498C92.9291 108.762 92.2411 109.325 90.8501 109.362C90.6351 109.382 89.7201 109.324 89.5371 109.263V99.1287C89.5371 97.8637 90.2251 97.3007 91.6161 97.2637C91.8311 97.2437 92.7471 97.3027 92.9291 97.3617V107.498Z" fill="#48BF84"/>
<path d="M131.303 102.863C131.303 101.339 131.272 100.923 131.15 100.59C130.621 99.1439 127.572 99.5799 127.572 101.064V107.5C127.572 108.766 126.884 109.328 125.494 109.364C125.278 109.385 124.362 109.326 124.181 109.266V102.866C124.181 101.341 124.15 100.925 124.028 100.592C123.499 99.1459 120.449 99.5819 120.449 101.066V107.502C120.449 108.768 119.761 109.33 118.372 109.367C118.155 109.388 117.24 109.328 117.059 109.268V97.3609C118.45 97.1649 119.987 97.1829 120.275 98.5449C121.629 96.6249 126.242 96.1909 127.125 99.0639C127.944 97.5039 129.752 96.8849 131.473 97.0339C134.393 97.2839 134.688 99.6729 134.699 102.59L134.7 107.499C134.7 108.765 134.012 109.327 132.622 109.363C132.406 109.384 131.49 109.325 131.309 109.265V102.864H131.303V102.863Z" fill="#48BF84"/>
<path d="M95.543 109.265C95.725 109.326 96.641 109.382 96.856 109.365C98.249 109.327 98.935 108.762 98.935 107.5V101.478C98.935 100.169 100.898 99.2488 102.601 100.68C103.018 99.9848 103.424 98.8878 103.424 98.2448C103.424 96.8598 100.496 96.2508 98.785 98.5338C98.47 97.2238 96.877 97.1398 95.543 97.3628V109.265Z" fill="#48BF84"/>
<path d="M153.002 92.3759C152.845 92.3229 152.129 92.2759 151.856 92.2759C150.36 92.2759 149.611 92.8329 149.611 94.1459V109.264C149.796 109.325 150.71 109.381 150.924 109.364C152.315 109.326 153.002 108.761 153.002 107.499V92.3759Z" fill="#48BF84"/>
</g>
<defs>
<clipPath id="clip0_223_378">
<rect width="118.003" height="53.855" fill="white" transform="translate(35 70)"/>
</clipPath>
</defs>
</svg>
