<svg width="200" height="200" viewBox="0 0 200 200" fill="none" xmlns="http://www.w3.org/2000/svg">
<path d="M136.475 51.1963L124.475 51.6963L124.175 68.3963L123.975 85.1963H146.975H169.975V78.6963V72.2963L160.275 71.9963L150.475 71.6963L150.775 62.3963C150.875 55.8963 150.575 52.6963 149.775 51.8963C148.875 50.9963 144.975 50.7963 136.475 51.1963Z" fill="#48BF84" fill-opacity="0.69"/>
<path d="M96.9746 89.1963V92.1963H110.475H123.975V89.1963V86.1963H110.475H96.9746V89.1963Z" fill="#48BF84"/>
<path d="M35.7737 109.996C30.6737 111.696 29.2737 114.196 33.4737 114.196H35.9737V129.296C35.9737 143.496 35.8737 144.396 33.9737 144.896C32.8737 145.196 31.9737 146.096 31.9737 146.796C31.9737 147.896 33.9737 148.196 41.0737 148.196C47.8737 148.196 50.0737 147.896 49.7737 146.896C49.4737 146.296 48.3737 145.596 47.1737 145.396C45.2737 145.096 44.9737 144.396 44.9737 140.596V136.196H48.8737C53.9737 136.196 58.5737 134.496 61.6737 131.396C63.9737 129.096 64.2737 127.996 64.2737 121.796C64.2737 117.396 63.8737 114.696 63.0737 114.396C62.4737 114.196 61.9737 113.396 61.9737 112.596C61.9737 110.896 56.8737 108.196 53.7737 108.196C52.4737 108.296 50.3737 108.896 48.9737 109.696C45.7737 111.496 44.9737 111.496 44.9737 109.696C44.9737 107.796 41.9737 107.896 35.7737 109.996ZM51.6737 114.796C54.2737 115.496 55.3737 120.296 54.4737 126.696C53.8737 130.196 53.2737 131.196 51.3737 131.596C50.0737 131.996 48.9737 132.696 48.9737 133.196C48.9737 133.796 48.0737 134.196 46.9737 134.196C45.0737 134.196 44.9737 133.496 44.9737 124.196C44.9737 114.496 45.0737 114.196 47.2737 114.196C48.4737 114.196 50.4737 114.496 51.6737 114.796Z" fill="#48BF84"/>
<path d="M104.673 108.796C104.273 109.196 103.973 112.096 103.973 115.296C103.973 120.496 103.573 121.496 100.773 124.696C98.9731 126.596 97.2731 128.196 96.9731 128.196C96.6731 128.196 96.6731 123.896 96.7731 118.596L97.1731 109.096L93.4731 109.396C90.9731 109.596 89.2731 110.396 88.5731 111.696C87.9731 112.696 86.8731 114.296 86.0731 115.096C85.2731 115.996 83.7731 118.596 82.7731 120.896C81.7731 123.296 80.4731 125.196 79.9731 125.196C79.3731 125.196 78.9731 121.596 78.9731 117.196C78.9731 109.296 78.9731 109.196 76.3731 109.196C74.9731 109.196 71.8731 109.696 69.3731 110.296C64.2731 111.596 63.2731 114.196 67.9731 114.196H70.9731V125.296V136.296L74.6731 135.996C78.0731 135.696 78.6731 135.096 82.7731 128.396C85.1731 124.496 87.4731 121.196 87.7731 121.196C88.1731 121.196 88.4731 124.496 88.4731 128.396V135.696L91.9731 135.996C94.3731 136.196 96.0731 135.696 97.1731 134.496C98.0731 133.496 99.9731 131.396 101.373 129.896C102.773 128.396 103.973 126.796 103.973 126.396C103.973 125.996 105.573 123.696 107.473 121.296C111.473 116.296 112.773 112.596 111.273 110.296C110.173 108.596 105.873 107.596 104.673 108.796Z" fill="#48BF84"/>
<path d="M120.975 109.796C116.275 111.796 113.975 114.596 113.975 118.196C113.975 119.796 113.575 121.196 112.975 121.196C112.475 121.196 111.975 121.896 111.975 122.696C111.975 123.496 112.475 124.196 112.975 124.196C113.575 124.196 113.975 125.696 113.975 127.396C114.075 133.296 118.475 136.196 127.175 136.196C134.575 136.196 138.975 134.396 138.975 131.396C138.975 129.496 138.575 129.096 137.275 129.796C133.275 131.496 127.875 131.396 125.975 129.696C123.275 127.296 123.175 116.196 125.675 113.196C128.475 109.996 129.975 110.696 129.975 115.096C129.975 119.896 132.575 121.296 136.575 118.696C138.675 117.396 138.975 116.496 138.475 114.396C138.175 112.896 136.875 110.896 135.675 109.996C132.975 107.796 125.775 107.696 120.975 109.796Z" fill="#48BF84"/>
</svg>
