<svg width="200" height="200" viewBox="0 0 200 200" fill="none" xmlns="http://www.w3.org/2000/svg">
<path d="M131.263 81.0001H112.389C103.466 81.0001 95.0653 85.1819 89.6652 92.2902L72.6091 114.746C70.2688 113.088 68.1595 111.063 66.379 108.723L20.8679 48.7662C18.7585 45.9856 20.7328 42 24.2216 42H87.495C96.4186 42 104.832 46.1818 110.232 53.2901L131.263 81.0001Z" fill="#48BF84"/>
<path d="M179.018 87.7642L133.507 147.723C128.118 154.831 119.706 159 110.77 159H47.5095C44.0229 159 42.0486 155.025 44.1449 152.247L72.6129 114.746C77.381 118.135 83.1339 120 89.12 120H152.382C155.869 120 157.856 116.025 155.747 113.247L131.265 80.998H175.666C179.153 80.998 181.127 84.9856 179.018 87.7642Z" fill="#48BF84"/>
<path d="M152.375 120.002H89.1125C83.1265 120.002 77.3714 118.136 72.6055 114.748L89.6616 92.292C95.0617 85.1837 103.462 81.002 112.386 81.002H131.259L155.74 113.249C157.849 116.027 155.861 120.002 152.375 120.002Z" fill="#48BF84" fill-opacity="0.72"/>
</svg>
