<svg width="200" height="200" viewBox="0 0 200 200" fill="none" xmlns="http://www.w3.org/2000/svg">
<path d="M11.4 82.3996C11.7 94.5996 11.8 94.9996 14.5 97.6996C18.3 101.5 25.8 101.7 29.6 98.0996C32.2 95.6996 32.2 95.6996 32.2 97.7996C32.2 99.5996 32.8 99.9996 35.2 99.9996H38.3L38 85.1996L37.7 70.4996L35 70.1996L32.2 69.8996V79.9996C32.2 89.9996 32.1 90.1996 29.2 93.1996C26.6 95.6996 25.6 96.0996 22.9 95.5996C21.2 95.1996 19.3 94.4996 18.7 93.8996C18.2 93.3996 17.5 87.8996 17.2 81.6996L16.7 70.4996L13.9 70.1996L11 69.8996L11.4 82.3996Z" fill="#48BF84"/>
<path d="M48.7001 71.9999C40.0001 77.6999 40.0001 92.5999 48.8001 98.0999C53.5001 101 60.4001 101 64.2001 98.1999C65.8001 96.9999 67.4001 95.9999 67.7001 95.9999C68.6001 95.9999 68.3001 100.5 67.1001 103.9C65.0001 109.8 55.9001 111.9 49.3001 107.9C46.3001 106.1 45.7001 106 44.4001 107.4C38.8001 113 57.8001 118 66.0001 113C72.5001 109 73.2001 106.5 73.2001 87.1999V69.9999H70.7001C68.8001 69.9999 68.2001 70.4999 68.2001 72.0999V74.1999L64.8001 72.0999C60.4001 69.2999 52.8001 69.2999 48.7001 71.9999ZM63.9001 76.4999C68.9001 79.9999 68.9001 89.9999 63.9001 93.4999C60.4001 95.8999 53.5001 95.3999 50.7001 92.4999C47.2001 89.0999 47.2001 82.2999 50.8001 78.0999C52.9001 75.4999 54.1001 74.9999 57.6001 74.9999C59.9001 74.9999 62.7001 75.6999 63.9001 76.4999Z" fill="#48BF84"/>
<path d="M82.5001 71.5997C79.8001 72.9997 79.4001 73.4997 80.3001 75.0997C81.5001 77.2997 81.9001 77.3997 85.2001 75.4997C90.7001 72.3997 98.2001 74.8997 98.2001 79.8997C98.2001 81.4997 97.3001 81.7997 91.2001 82.1997C80.6001 82.7997 75.3001 87.9997 78.2001 95.0997C80.6001 100.8 87.8001 102.5 94.5001 99.0997C97.7001 97.4997 98.4001 97.3997 98.9001 98.5997C99.2001 99.3997 100.3 99.9997 101.3 99.9997C103.1 99.9997 103.2 99.0997 103.2 87.8997C103.2 75.8997 103.2 75.7997 100.3 72.8997C97.7001 70.3997 96.6001 69.9997 91.5001 69.9997C88.3001 69.9997 84.3001 70.6997 82.5001 71.5997ZM98.2001 88.3997C98.2001 89.6997 97.3001 91.8997 96.1001 93.3997C94.5001 95.4997 93.2001 95.9997 89.7001 95.9997C84.9001 95.9997 82.9001 94.2997 83.4001 90.7997C83.8001 87.7997 87.6001 85.9997 93.5001 85.9997C97.8001 85.9997 98.2001 86.1997 98.2001 88.3997Z" fill="#48BF84"/>
<path d="M109.199 85V100H111.699C114.199 100 114.199 99.9 114.199 91C114.199 78.7 116.199 75 122.699 75C127.299 75 128.199 77.2 128.199 89.1V100H131.199H134.199V90.1C134.199 81.7 134.499 79.9 136.299 77.6C137.799 75.7 139.299 75 141.599 75C147.199 75 148.199 77.2 148.199 89.3V100H151.199H154.199V90.2C154.199 74 151.999 70 143.099 70C139.899 70 137.599 70.7 135.799 72.1L133.199 74.1L130.599 72.1C128.799 70.7 126.499 70 123.699 70C120.899 70 118.599 70.7 116.799 72.1L114.199 74.1V72.1C114.199 70.5 113.599 70 111.699 70H109.199V85Z" fill="#48BF84"/>
<circle cx="167.199" cy="96" r="4" fill="#93D1B3" fill-opacity="0.68"/>
<circle cx="176.199" cy="88" r="4" fill="#48BF84"/>
<circle cx="184.199" cy="80" r="4" fill="#48BF84"/>
<circle cx="176.199" cy="72" r="4" fill="#48BF84"/>
<circle cx="167.199" cy="64" r="4" fill="#93D1B3" fill-opacity="0.68"/>
<circle cx="159.199" cy="56" r="4" fill="#93D1B3" fill-opacity="0.68"/>
<path d="M83.43 113.07C83.43 113.65 83.23 114.133 82.83 114.52C82.4367 114.9 81.8333 115.09 81.02 115.09H79.68V118H78.77V111.03H81.02C81.8067 111.03 82.4033 111.22 82.81 111.6C83.2233 111.98 83.43 112.47 83.43 113.07ZM81.02 114.34C81.5267 114.34 81.9 114.23 82.14 114.01C82.38 113.79 82.5 113.477 82.5 113.07C82.5 112.21 82.0067 111.78 81.02 111.78H79.68V114.34H81.02ZM87.921 118.07C87.2743 118.07 86.6843 117.92 86.151 117.62C85.6177 117.313 85.1943 116.89 84.881 116.35C84.5743 115.803 84.421 115.19 84.421 114.51C84.421 113.83 84.5743 113.22 84.881 112.68C85.1943 112.133 85.6177 111.71 86.151 111.41C86.6843 111.103 87.2743 110.95 87.921 110.95C88.5743 110.95 89.1677 111.103 89.701 111.41C90.2343 111.71 90.6543 112.13 90.961 112.67C91.2677 113.21 91.421 113.823 91.421 114.51C91.421 115.197 91.2677 115.81 90.961 116.35C90.6543 116.89 90.2343 117.313 89.701 117.62C89.1677 117.92 88.5743 118.07 87.921 118.07ZM87.921 117.28C88.4077 117.28 88.8443 117.167 89.231 116.94C89.6243 116.713 89.931 116.39 90.151 115.97C90.3777 115.55 90.491 115.063 90.491 114.51C90.491 113.95 90.3777 113.463 90.151 113.05C89.931 112.63 89.6277 112.307 89.241 112.08C88.8543 111.853 88.4143 111.74 87.921 111.74C87.4277 111.74 86.9877 111.853 86.601 112.08C86.2143 112.307 85.9077 112.63 85.681 113.05C85.461 113.463 85.351 113.95 85.351 114.51C85.351 115.063 85.461 115.55 85.681 115.97C85.9077 116.39 86.2143 116.713 86.601 116.94C86.9943 117.167 87.4343 117.28 87.921 117.28ZM101.582 111.03L99.5623 118H98.5423L96.9223 112.39L95.2423 118L94.2323 118.01L92.2823 111.03H93.2523L94.7723 116.94L96.4523 111.03H97.4723L99.0723 116.92L100.602 111.03H101.582ZM103.688 111.77V114.1H106.228V114.85H103.688V117.25H106.528V118H102.778V111.02H106.528V111.77H103.688ZM111.775 118L110.115 115.15H109.015V118H108.105V111.03H110.355C110.882 111.03 111.325 111.12 111.685 111.3C112.052 111.48 112.325 111.723 112.505 112.03C112.685 112.337 112.775 112.687 112.775 113.08C112.775 113.56 112.635 113.983 112.355 114.35C112.082 114.717 111.668 114.96 111.115 115.08L112.865 118H111.775ZM109.015 114.42H110.355C110.848 114.42 111.218 114.3 111.465 114.06C111.712 113.813 111.835 113.487 111.835 113.08C111.835 112.667 111.712 112.347 111.465 112.12C111.225 111.893 110.855 111.78 110.355 111.78H109.015V114.42ZM115.299 111.03V118H114.389V111.03H115.299ZM122.53 118H121.62L117.96 112.45V118H117.05V111.02H117.96L121.62 116.56V111.02H122.53V118ZM129.561 113.05C129.368 112.643 129.088 112.33 128.721 112.11C128.355 111.883 127.928 111.77 127.441 111.77C126.955 111.77 126.515 111.883 126.121 112.11C125.735 112.33 125.428 112.65 125.201 113.07C124.981 113.483 124.871 113.963 124.871 114.51C124.871 115.057 124.981 115.537 125.201 115.95C125.428 116.363 125.735 116.683 126.121 116.91C126.515 117.13 126.955 117.24 127.441 117.24C128.121 117.24 128.681 117.037 129.121 116.63C129.561 116.223 129.818 115.673 129.891 114.98H127.111V114.24H130.861V114.94C130.808 115.513 130.628 116.04 130.321 116.52C130.015 116.993 129.611 117.37 129.111 117.65C128.611 117.923 128.055 118.06 127.441 118.06C126.795 118.06 126.205 117.91 125.671 117.61C125.138 117.303 124.715 116.88 124.401 116.34C124.095 115.8 123.941 115.19 123.941 114.51C123.941 113.83 124.095 113.22 124.401 112.68C124.715 112.133 125.138 111.71 125.671 111.41C126.205 111.103 126.795 110.95 127.441 110.95C128.181 110.95 128.835 111.133 129.401 111.5C129.975 111.867 130.391 112.383 130.651 113.05H129.561ZM139.251 116.45H136.211L135.651 118H134.691L137.211 111.07H138.261L140.771 118H139.811L139.251 116.45ZM138.991 115.71L137.731 112.19L136.471 115.71H138.991ZM147.549 118H146.639L142.979 112.45V118H142.069V111.02H142.979L146.639 116.56V111.02H147.549V118ZM153.42 116.45H150.38L149.82 118H148.86L151.38 111.07H152.43L154.94 118H153.98L153.42 116.45ZM153.16 115.71L151.9 112.19L150.64 115.71H153.16ZM157.148 117.26H159.588V118H156.238V111.03H157.148V117.26ZM165.635 111.03L163.365 115.37V118H162.455V115.37L160.175 111.03H161.185L162.905 114.56L164.625 111.03H165.635ZM171.085 111.03V111.77H169.185V118H168.275V111.77H166.365V111.03H171.085ZM173.315 111.03V118H172.405V111.03H173.315ZM174.726 114.51C174.726 113.83 174.879 113.22 175.186 112.68C175.492 112.133 175.909 111.707 176.436 111.4C176.969 111.093 177.559 110.94 178.206 110.94C178.966 110.94 179.629 111.123 180.196 111.49C180.762 111.857 181.176 112.377 181.436 113.05H180.346C180.152 112.63 179.872 112.307 179.506 112.08C179.146 111.853 178.712 111.74 178.206 111.74C177.719 111.74 177.282 111.853 176.896 112.08C176.509 112.307 176.206 112.63 175.986 113.05C175.766 113.463 175.656 113.95 175.656 114.51C175.656 115.063 175.766 115.55 175.986 115.97C176.206 116.383 176.509 116.703 176.896 116.93C177.282 117.157 177.719 117.27 178.206 117.27C178.712 117.27 179.146 117.16 179.506 116.94C179.872 116.713 180.152 116.39 180.346 115.97H181.436C181.176 116.637 180.762 117.153 180.196 117.52C179.629 117.88 178.966 118.06 178.206 118.06C177.559 118.06 176.969 117.91 176.436 117.61C175.909 117.303 175.492 116.88 175.186 116.34C174.879 115.8 174.726 115.19 174.726 114.51ZM185.2 118.07C184.74 118.07 184.327 117.99 183.96 117.83C183.6 117.663 183.317 117.437 183.11 117.15C182.904 116.857 182.797 116.52 182.79 116.14H183.76C183.794 116.467 183.927 116.743 184.16 116.97C184.4 117.19 184.747 117.3 185.2 117.3C185.634 117.3 185.974 117.193 186.22 116.98C186.474 116.76 186.6 116.48 186.6 116.14C186.6 115.873 186.527 115.657 186.38 115.49C186.234 115.323 186.05 115.197 185.83 115.11C185.61 115.023 185.314 114.93 184.94 114.83C184.48 114.71 184.11 114.59 183.83 114.47C183.557 114.35 183.32 114.163 183.12 113.91C182.927 113.65 182.83 113.303 182.83 112.87C182.83 112.49 182.927 112.153 183.12 111.86C183.314 111.567 183.584 111.34 183.93 111.18C184.284 111.02 184.687 110.94 185.14 110.94C185.794 110.94 186.327 111.103 186.74 111.43C187.16 111.757 187.397 112.19 187.45 112.73H186.45C186.417 112.463 186.277 112.23 186.03 112.03C185.784 111.823 185.457 111.72 185.05 111.72C184.67 111.72 184.36 111.82 184.12 112.02C183.88 112.213 183.76 112.487 183.76 112.84C183.76 113.093 183.83 113.3 183.97 113.46C184.117 113.62 184.294 113.743 184.5 113.83C184.714 113.91 185.01 114.003 185.39 114.11C185.85 114.237 186.22 114.363 186.5 114.49C186.78 114.61 187.02 114.8 187.22 115.06C187.42 115.313 187.52 115.66 187.52 116.1C187.52 116.44 187.43 116.76 187.25 117.06C187.07 117.36 186.804 117.603 186.45 117.79C186.097 117.977 185.68 118.07 185.2 118.07ZM79.68 124.03V131H78.77V124.03H79.68ZM86.9109 131H86.0009L82.3409 125.45V131H81.4309V124.02H82.3409L86.0009 129.56V124.02H86.9109V131ZM92.9522 124.03V124.77H91.0522V131H90.1422V124.77H88.2322V124.03H92.9522ZM97.4323 131.07C96.7857 131.07 96.1957 130.92 95.6623 130.62C95.129 130.313 94.7057 129.89 94.3923 129.35C94.0857 128.803 93.9323 128.19 93.9323 127.51C93.9323 126.83 94.0857 126.22 94.3923 125.68C94.7057 125.133 95.129 124.71 95.6623 124.41C96.1957 124.103 96.7857 123.95 97.4323 123.95C98.0857 123.95 98.679 124.103 99.2123 124.41C99.7457 124.71 100.166 125.13 100.472 125.67C100.779 126.21 100.932 126.823 100.932 127.51C100.932 128.197 100.779 128.81 100.472 129.35C100.166 129.89 99.7457 130.313 99.2123 130.62C98.679 130.92 98.0857 131.07 97.4323 131.07ZM97.4323 130.28C97.919 130.28 98.3557 130.167 98.7423 129.94C99.1357 129.713 99.4423 129.39 99.6623 128.97C99.889 128.55 100.002 128.063 100.002 127.51C100.002 126.95 99.889 126.463 99.6623 126.05C99.4423 125.63 99.139 125.307 98.7523 125.08C98.3657 124.853 97.9257 124.74 97.4323 124.74C96.939 124.74 96.499 124.853 96.1123 125.08C95.7257 125.307 95.419 125.63 95.1923 126.05C94.9723 126.463 94.8623 126.95 94.8623 127.51C94.8623 128.063 94.9723 128.55 95.1923 128.97C95.419 129.39 95.7257 129.713 96.1123 129.94C96.5057 130.167 96.9457 130.28 97.4323 130.28ZM109.32 129.45H106.28L105.72 131H104.76L107.28 124.07H108.33L110.84 131H109.88L109.32 129.45ZM109.06 128.71L107.8 125.19L106.54 128.71H109.06ZM111.798 127.51C111.798 126.83 111.951 126.22 112.258 125.68C112.565 125.133 112.981 124.707 113.508 124.4C114.041 124.093 114.631 123.94 115.278 123.94C116.038 123.94 116.701 124.123 117.268 124.49C117.835 124.857 118.248 125.377 118.508 126.05H117.418C117.225 125.63 116.945 125.307 116.578 125.08C116.218 124.853 115.785 124.74 115.278 124.74C114.791 124.74 114.355 124.853 113.968 125.08C113.581 125.307 113.278 125.63 113.058 126.05C112.838 126.463 112.728 126.95 112.728 127.51C112.728 128.063 112.838 128.55 113.058 128.97C113.278 129.383 113.581 129.703 113.968 129.93C114.355 130.157 114.791 130.27 115.278 130.27C115.785 130.27 116.218 130.16 116.578 129.94C116.945 129.713 117.225 129.39 117.418 128.97H118.508C118.248 129.637 117.835 130.153 117.268 130.52C116.701 130.88 116.038 131.06 115.278 131.06C114.631 131.06 114.041 130.91 113.508 130.61C112.981 130.303 112.565 129.88 112.258 129.34C111.951 128.8 111.798 128.19 111.798 127.51ZM124.353 124.03V124.77H122.453V131H121.543V124.77H119.633V124.03H124.353ZM126.583 124.03V131H125.673V124.03H126.583ZM131.494 131.07C130.847 131.07 130.257 130.92 129.724 130.62C129.19 130.313 128.767 129.89 128.454 129.35C128.147 128.803 127.994 128.19 127.994 127.51C127.994 126.83 128.147 126.22 128.454 125.68C128.767 125.133 129.19 124.71 129.724 124.41C130.257 124.103 130.847 123.95 131.494 123.95C132.147 123.95 132.74 124.103 133.274 124.41C133.807 124.71 134.227 125.13 134.534 125.67C134.84 126.21 134.994 126.823 134.994 127.51C134.994 128.197 134.84 128.81 134.534 129.35C134.227 129.89 133.807 130.313 133.274 130.62C132.74 130.92 132.147 131.07 131.494 131.07ZM131.494 130.28C131.98 130.28 132.417 130.167 132.804 129.94C133.197 129.713 133.504 129.39 133.724 128.97C133.95 128.55 134.064 128.063 134.064 127.51C134.064 126.95 133.95 126.463 133.724 126.05C133.504 125.63 133.2 125.307 132.814 125.08C132.427 124.853 131.987 124.74 131.494 124.74C131 124.74 130.56 124.853 130.174 125.08C129.787 125.307 129.48 125.63 129.254 126.05C129.034 126.463 128.924 126.95 128.924 127.51C128.924 128.063 129.034 128.55 129.254 128.97C129.48 129.39 129.787 129.713 130.174 129.94C130.567 130.167 131.007 130.28 131.494 130.28ZM141.875 131H140.965L137.305 125.45V131H136.395V124.02H137.305L140.965 129.56V124.02H141.875V131Z" fill="#93D7B6"/>
<path d="M82.94 143.58H80.03L79.53 145H78.34L80.83 138.04H82.15L84.64 145H83.44L82.94 143.58ZM82.62 142.65L81.49 139.42L80.35 142.65H82.62ZM96.2403 138.05V145H95.1003V140.24L92.9803 145H92.1903L90.0603 140.24V145H88.9203V138.05H90.1503L92.5903 143.5L95.0203 138.05H96.2403ZM103.089 142.11C103.089 142.317 103.075 142.503 103.049 142.67H98.8387C98.872 143.11 99.0353 143.463 99.3287 143.73C99.622 143.997 99.982 144.13 100.409 144.13C101.022 144.13 101.455 143.873 101.709 143.36H102.939C102.772 143.867 102.469 144.283 102.029 144.61C101.595 144.93 101.055 145.09 100.409 145.09C99.882 145.09 99.4087 144.973 98.9887 144.74C98.5753 144.5 98.2487 144.167 98.0087 143.74C97.7753 143.307 97.6587 142.807 97.6587 142.24C97.6587 141.673 97.772 141.177 97.9987 140.75C98.232 140.317 98.5553 139.983 98.9687 139.75C99.3887 139.517 99.8687 139.4 100.409 139.4C100.929 139.4 101.392 139.513 101.799 139.74C102.205 139.967 102.522 140.287 102.749 140.7C102.975 141.107 103.089 141.577 103.089 142.11ZM101.899 141.75C101.892 141.33 101.742 140.993 101.449 140.74C101.155 140.487 100.792 140.36 100.359 140.36C99.9653 140.36 99.6287 140.487 99.3487 140.74C99.0687 140.987 98.902 141.323 98.8487 141.75H101.899ZM105.651 140.29C105.817 140.01 106.037 139.793 106.311 139.64C106.591 139.48 106.921 139.4 107.301 139.4V140.58H107.011C106.564 140.58 106.224 140.693 105.991 140.92C105.764 141.147 105.651 141.54 105.651 142.1V145H104.511V139.49H105.651V140.29ZM110.828 142.25L113.368 145H111.828L109.788 142.63V145H108.648V137.6H109.788V141.9L111.788 139.49H113.368L110.828 142.25ZM115.626 137.6V145H114.486V137.6H115.626ZM122.472 142.11C122.472 142.317 122.459 142.503 122.432 142.67H118.222C118.256 143.11 118.419 143.463 118.712 143.73C119.006 143.997 119.366 144.13 119.792 144.13C120.406 144.13 120.839 143.873 121.092 143.36H122.322C122.156 143.867 121.852 144.283 121.412 144.61C120.979 144.93 120.439 145.09 119.792 145.09C119.266 145.09 118.792 144.973 118.372 144.74C117.959 144.5 117.632 144.167 117.392 143.74C117.159 143.307 117.042 142.807 117.042 142.24C117.042 141.673 117.156 141.177 117.382 140.75C117.616 140.317 117.939 139.983 118.352 139.75C118.772 139.517 119.252 139.4 119.792 139.4C120.312 139.4 120.776 139.513 121.182 139.74C121.589 139.967 121.906 140.287 122.132 140.7C122.359 141.107 122.472 141.577 122.472 142.11ZM121.282 141.75C121.276 141.33 121.126 140.993 120.832 140.74C120.539 140.487 120.176 140.36 119.742 140.36C119.349 140.36 119.012 140.487 118.732 140.74C118.452 140.987 118.286 141.323 118.232 141.75H121.282ZM126.412 141.51C126.412 140.83 126.568 140.22 126.882 139.68C127.202 139.14 127.632 138.72 128.172 138.42C128.718 138.113 129.315 137.96 129.962 137.96C130.702 137.96 131.358 138.143 131.932 138.51C132.512 138.87 132.932 139.383 133.192 140.05H131.822C131.642 139.683 131.392 139.41 131.072 139.23C130.752 139.05 130.382 138.96 129.962 138.96C129.502 138.96 129.092 139.063 128.732 139.27C128.372 139.477 128.088 139.773 127.882 140.16C127.682 140.547 127.582 140.997 127.582 141.51C127.582 142.023 127.682 142.473 127.882 142.86C128.088 143.247 128.372 143.547 128.732 143.76C129.092 143.967 129.502 144.07 129.962 144.07C130.382 144.07 130.752 143.98 131.072 143.8C131.392 143.62 131.642 143.347 131.822 142.98H133.192C132.932 143.647 132.512 144.16 131.932 144.52C131.358 144.88 130.702 145.06 129.962 145.06C129.308 145.06 128.712 144.91 128.172 144.61C127.632 144.303 127.202 143.88 126.882 143.34C126.568 142.8 126.412 142.19 126.412 141.51ZM137.216 145.09C136.696 145.09 136.226 144.973 135.806 144.74C135.386 144.5 135.056 144.167 134.816 143.74C134.576 143.307 134.456 142.807 134.456 142.24C134.456 141.68 134.58 141.183 134.826 140.75C135.073 140.317 135.41 139.983 135.836 139.75C136.263 139.517 136.74 139.4 137.266 139.4C137.793 139.4 138.27 139.517 138.696 139.75C139.123 139.983 139.46 140.317 139.706 140.75C139.953 141.183 140.076 141.68 140.076 142.24C140.076 142.8 139.95 143.297 139.696 143.73C139.443 144.163 139.096 144.5 138.656 144.74C138.223 144.973 137.743 145.09 137.216 145.09ZM137.216 144.1C137.51 144.1 137.783 144.03 138.036 143.89C138.296 143.75 138.506 143.54 138.666 143.26C138.826 142.98 138.906 142.64 138.906 142.24C138.906 141.84 138.83 141.503 138.676 141.23C138.523 140.95 138.32 140.74 138.066 140.6C137.813 140.46 137.54 140.39 137.246 140.39C136.953 140.39 136.68 140.46 136.426 140.6C136.18 140.74 135.983 140.95 135.836 141.23C135.69 141.503 135.616 141.84 135.616 142.24C135.616 142.833 135.766 143.293 136.066 143.62C136.373 143.94 136.756 144.1 137.216 144.1ZM148.173 139.4C148.606 139.4 148.993 139.49 149.333 139.67C149.68 139.85 149.95 140.117 150.143 140.47C150.343 140.823 150.443 141.25 150.443 141.75V145H149.313V141.92C149.313 141.427 149.19 141.05 148.943 140.79C148.696 140.523 148.36 140.39 147.933 140.39C147.506 140.39 147.166 140.523 146.913 140.79C146.666 141.05 146.543 141.427 146.543 141.92V145H145.413V141.92C145.413 141.427 145.29 141.05 145.043 140.79C144.796 140.523 144.46 140.39 144.033 140.39C143.606 140.39 143.266 140.523 143.013 140.79C142.766 141.05 142.643 141.427 142.643 141.92V145H141.503V139.49H142.643V140.12C142.83 139.893 143.066 139.717 143.353 139.59C143.64 139.463 143.946 139.4 144.273 139.4C144.713 139.4 145.106 139.493 145.453 139.68C145.8 139.867 146.066 140.137 146.253 140.49C146.42 140.157 146.68 139.893 147.033 139.7C147.386 139.5 147.766 139.4 148.173 139.4ZM153.334 140.3C153.527 140.047 153.79 139.833 154.124 139.66C154.457 139.487 154.834 139.4 155.254 139.4C155.734 139.4 156.17 139.52 156.564 139.76C156.964 139.993 157.277 140.323 157.504 140.75C157.73 141.177 157.844 141.667 157.844 142.22C157.844 142.773 157.73 143.27 157.504 143.71C157.277 144.143 156.964 144.483 156.564 144.73C156.17 144.97 155.734 145.09 155.254 145.09C154.834 145.09 154.46 145.007 154.134 144.84C153.807 144.667 153.54 144.453 153.334 144.2V147.62H152.194V139.49H153.334V140.3ZM156.684 142.22C156.684 141.84 156.604 141.513 156.444 141.24C156.29 140.96 156.084 140.75 155.824 140.61C155.57 140.463 155.297 140.39 155.004 140.39C154.717 140.39 154.444 140.463 154.184 140.61C153.93 140.757 153.724 140.97 153.564 141.25C153.41 141.53 153.334 141.86 153.334 142.24C153.334 142.62 153.41 142.953 153.564 143.24C153.724 143.52 153.93 143.733 154.184 143.88C154.444 144.027 154.717 144.1 155.004 144.1C155.297 144.1 155.57 144.027 155.824 143.88C156.084 143.727 156.29 143.507 156.444 143.22C156.604 142.933 156.684 142.6 156.684 142.22ZM158.891 142.22C158.891 141.667 159.004 141.177 159.231 140.75C159.464 140.323 159.778 139.993 160.171 139.76C160.571 139.52 161.011 139.4 161.491 139.4C161.924 139.4 162.301 139.487 162.621 139.66C162.948 139.827 163.208 140.037 163.401 140.29V139.49H164.551V145H163.401V144.18C163.208 144.44 162.944 144.657 162.611 144.83C162.278 145.003 161.898 145.09 161.471 145.09C160.998 145.09 160.564 144.97 160.171 144.73C159.778 144.483 159.464 144.143 159.231 143.71C159.004 143.27 158.891 142.773 158.891 142.22ZM163.401 142.24C163.401 141.86 163.321 141.53 163.161 141.25C163.008 140.97 162.804 140.757 162.551 140.61C162.298 140.463 162.024 140.39 161.731 140.39C161.438 140.39 161.164 140.463 160.911 140.61C160.658 140.75 160.451 140.96 160.291 141.24C160.138 141.513 160.061 141.84 160.061 142.22C160.061 142.6 160.138 142.933 160.291 143.22C160.451 143.507 160.658 143.727 160.911 143.88C161.171 144.027 161.444 144.1 161.731 144.1C162.024 144.1 162.298 144.027 162.551 143.88C162.804 143.733 163.008 143.52 163.161 143.24C163.321 142.953 163.401 142.62 163.401 142.24ZM169.128 139.4C169.562 139.4 169.948 139.49 170.288 139.67C170.635 139.85 170.905 140.117 171.098 140.47C171.292 140.823 171.388 141.25 171.388 141.75V145H170.258V141.92C170.258 141.427 170.135 141.05 169.888 140.79C169.642 140.523 169.305 140.39 168.878 140.39C168.452 140.39 168.112 140.523 167.858 140.79C167.612 141.05 167.488 141.427 167.488 141.92V145H166.348V139.49H167.488V140.12C167.675 139.893 167.912 139.717 168.198 139.59C168.492 139.463 168.802 139.4 169.128 139.4ZM178.103 139.49L174.723 147.59H173.543L174.663 144.91L172.493 139.49H173.763L175.313 143.69L176.923 139.49H178.103Z" fill="#48BF84"/>
</svg>
