<svg width="180" height="339" viewBox="0 0 180 339" fill="none" xmlns="http://www.w3.org/2000/svg">
<g clip-path="url(#clip0_226_232)">
<path d="M-37.1757 75.8608C-32.309 89.2542 -24.2142 101.241 -13.6085 110.759C-3.00283 120.276 9.78648 127.032 23.6265 130.426C37.4666 133.821 51.9302 133.749 65.7362 130.219C79.5421 126.688 92.2643 119.808 102.776 110.186C113.287 100.564 121.264 88.4985 125.998 75.0578C130.733 61.6171 132.08 47.2162 129.92 33.1306C127.759 19.0451 122.159 5.70967 113.614 -5.69432C105.068 -17.0983 93.8428 -26.2189 80.9309 -32.2482L78.9971 -28.1068C91.2279 -22.3956 101.861 -13.756 109.956 -2.95357C118.05 7.84891 123.356 20.4809 125.402 33.8235C127.448 47.1661 126.172 60.8074 121.687 73.5392C117.203 86.2709 109.647 97.7001 99.6898 106.814C89.7327 115.929 77.6816 122.446 64.6038 125.791C51.526 129.135 37.8253 129.202 24.7153 125.987C11.6052 122.772 -0.509501 116.373 -10.5558 107.357C-20.6021 98.3411 -28.2698 86.9868 -32.8799 74.2998L-37.1757 75.8608Z" fill="url(#paint0_angular_226_232)"/>
<path d="M-26.769 68.1413C-22.6697 79.4226 -15.8515 89.5189 -6.91827 97.5358C2.01495 105.553 12.7874 111.243 24.445 114.102C36.1025 116.961 48.2852 116.901 59.914 113.927C71.5429 110.954 82.2588 105.158 91.1127 97.0534C99.9666 88.949 106.685 78.7861 110.673 67.4649C114.661 56.1438 115.796 44.0138 113.976 32.1495C112.156 20.2852 107.439 9.05277 100.241 -0.552852C93.0438 -10.1585 83.5884 -17.8408 72.7126 -22.9193L70.6354 -18.4709C80.7796 -13.734 89.599 -6.56841 96.3124 2.3911C103.026 11.3506 107.426 21.8275 109.123 32.8938C110.82 43.96 109.762 55.2741 106.043 65.8337C102.323 76.3934 96.0562 85.8727 87.7978 93.4319C79.5395 100.991 69.5443 106.397 58.6977 109.171C47.8511 111.945 36.4878 112.001 25.6144 109.334C14.741 106.667 4.69314 101.36 -3.63919 93.8819C-11.9715 86.4043 -18.3311 76.9871 -22.1547 66.4646L-26.769 68.1413Z" fill="url(#paint1_angular_226_232)"/>
<path d="M-16.9677 58.864C-13.6082 68.1093 -8.02053 76.3835 -0.699507 82.9536C6.62151 89.5236 15.4499 94.1868 25.0035 96.5299C34.5572 98.8731 44.5413 98.824 54.0714 96.3869C63.6016 93.9498 72.3836 89.2 79.6396 82.5582C86.8956 75.9164 92.4016 67.5877 95.6699 58.3097C98.9382 49.0317 99.868 39.0908 98.3767 29.3677C96.8855 19.6446 93.0194 10.4393 87.1208 2.56721C81.2222 -5.30487 73.4732 -11.6007 64.5602 -15.7627L62.8579 -12.1171C71.1713 -8.23508 78.3991 -2.36271 83.9009 4.97986C89.4028 12.3224 93.0088 20.9085 94.3998 29.9777C95.7907 39.0468 94.9235 48.3189 91.875 56.9729C88.8266 65.6268 83.6909 73.3953 76.923 79.5904C70.155 85.7854 61.9637 90.2157 53.0746 92.4889C44.1855 94.762 34.873 94.8078 25.9619 92.6223C17.0509 90.4367 8.81637 86.0872 1.98779 79.9591C-4.84079 73.831 -10.0527 66.1134 -13.1861 57.4899L-16.9677 58.864Z" fill="url(#paint2_angular_226_232)"/>
<path d="M-9.27992 49.1373C-6.62932 56.4318 -2.22063 62.9601 3.55563 68.1439C9.33189 73.3276 16.2974 77.0068 23.8352 78.8556C31.373 80.7043 39.2505 80.6656 46.7697 78.7427C54.289 76.8199 61.2179 73.0723 66.9429 67.8319C72.6679 62.5916 77.0121 56.0202 79.5908 48.6999C82.1695 41.3796 82.903 33.5363 81.7264 25.8648C80.5499 18.1933 77.4995 10.9304 72.8455 4.71932C68.1915 -1.49171 62.0776 -6.45913 55.0453 -9.74291L53.7022 -6.86655C60.2615 -3.80365 65.9641 0.829638 70.3051 6.6229C74.646 12.4162 77.4912 19.1906 78.5886 26.3461C79.686 33.5016 79.0018 40.8173 76.5966 47.6452C74.1914 54.4731 70.1394 60.6024 64.7995 65.4903C59.4596 70.3782 52.9967 73.8737 45.9832 75.6672C38.9697 77.4607 31.6222 77.4968 24.5914 75.7725C17.5606 74.0481 11.0636 70.6163 5.67589 65.7813C0.288169 60.9462 -3.82397 54.857 -6.29629 48.0531L-9.27992 49.1373Z" fill="url(#paint3_angular_226_232)"/>
</g>
<defs>
<radialGradient id="paint0_angular_226_232" cx="0" cy="0" r="1" gradientUnits="userSpaceOnUse" gradientTransform="translate(44.2677 46.267) rotate(28.2576) scale(86.6535)">
<stop offset="0.200885" stop-color="#48BF84" stop-opacity="0.33"/>
<stop offset="0.271644" stop-color="#48BF84" stop-opacity="0.33"/>
<stop offset="0.882549" stop-color="#48BF84" stop-opacity="0.22"/>
<stop offset="0.978609" stop-color="#48BF84" stop-opacity="0.29"/>
</radialGradient>
<radialGradient id="paint1_angular_226_232" cx="0" cy="0" r="1" gradientUnits="userSpaceOnUse" gradientTransform="translate(41.8311 43.2143) rotate(28.2576) scale(72.9885)">
<stop offset="0.200885" stop-color="#48BF84" stop-opacity="0.31"/>
<stop offset="0.302408" stop-color="#48BF84" stop-opacity="0.4"/>
<stop offset="0.862709" stop-color="#48BF84" stop-opacity="0.31"/>
<stop offset="0.934554" stop-color="#48BF84" stop-opacity="0.29"/>
</radialGradient>
<radialGradient id="paint2_angular_226_232" cx="0" cy="0" r="1" gradientUnits="userSpaceOnUse" gradientTransform="translate(39.2519 38.4356) rotate(28.2576) scale(59.8161)">
<stop offset="0.200885" stop-color="#48BF84" stop-opacity="0.24"/>
<stop offset="0.302408" stop-color="#48BF84" stop-opacity="0.26"/>
<stop offset="0.862709" stop-color="#48BF84" stop-opacity="0.2"/>
<stop offset="0.934554" stop-color="#48BF84" stop-opacity="0.22"/>
</radialGradient>
<radialGradient id="paint3_angular_226_232" cx="0" cy="0" r="1" gradientUnits="userSpaceOnUse" gradientTransform="translate(35.0772 33.0194) rotate(28.2576) scale(47.1947)">
<stop offset="0.200885" stop-color="#48BF84" stop-opacity="0.24"/>
<stop offset="0.302408" stop-color="#48BF84" stop-opacity="0.26"/>
<stop offset="0.862709" stop-color="#48BF84" stop-opacity="0.2"/>
<stop offset="0.934554" stop-color="#48BF84" stop-opacity="0.22"/>
</radialGradient>
<clipPath id="clip0_226_232">
<rect width="180" height="339" fill="white"/>
</clipPath>
</defs>
</svg>
