<svg width="1440" height="621" viewBox="0 0 1440 621" fill="none" xmlns="http://www.w3.org/2000/svg">
<g clip-path="url(#clip0_208_200)">
<path d="M-171.643 264.559C-154.672 311.264 -126.445 353.062 -89.4612 386.252C-52.4777 419.442 -7.87961 442.999 40.3826 454.836C88.6447 466.673 139.081 466.425 187.225 454.113C235.368 441.802 279.732 417.807 316.387 384.255C353.042 350.703 380.857 308.628 397.367 261.759C413.878 214.889 418.575 164.671 411.041 115.553C403.508 66.4348 383.978 19.9324 354.18 -19.8349C324.382 -59.6021 285.236 -91.4069 240.211 -112.432L233.467 -97.9904C276.118 -78.0744 313.199 -47.9472 341.425 -10.2775C369.651 27.3922 388.151 71.4418 395.287 117.969C402.423 164.497 397.974 212.066 382.335 256.463C366.695 300.861 340.347 340.716 305.626 372.498C270.904 404.281 228.88 427.01 183.276 438.672C137.672 450.334 89.8957 450.569 44.1791 439.356C-1.5374 428.144 -43.7831 405.829 -78.8159 374.39C-113.849 342.951 -140.587 303.357 -156.663 259.116L-171.643 264.559Z" fill="url(#paint0_angular_208_200)"/>
<path d="M-135.35 237.639C-121.056 276.979 -97.2797 312.186 -66.1283 340.142C-34.9769 368.098 2.58818 387.94 43.2396 397.91C83.891 407.881 126.374 407.671 166.925 397.302C207.477 386.932 244.845 366.721 275.719 338.46C306.594 310.199 330.022 274.759 343.929 235.281C357.836 195.802 361.792 153.504 355.447 112.131C349.102 70.7586 332.651 31.5895 307.552 -1.90659C282.453 -35.4027 249.481 -62.192 211.556 -79.9014L204.312 -64.3892C239.686 -47.871 270.441 -22.8837 293.851 8.35939C317.262 39.6024 332.606 76.1368 338.525 114.726C344.443 153.316 340.753 192.77 327.782 229.593C314.81 266.416 292.958 299.471 264.16 325.831C235.362 352.192 200.507 371.043 162.684 380.715C124.86 390.388 85.2347 390.583 47.3177 381.283C9.40063 371.983 -25.6377 353.476 -54.6937 327.4C-83.7497 301.325 -105.927 268.486 -119.26 231.793L-135.35 237.639Z" fill="url(#paint1_angular_208_200)"/>
<path d="M-101.173 205.289C-89.4582 237.529 -69.973 266.382 -44.4436 289.292C-18.9142 312.203 11.8715 328.464 45.1864 336.635C78.5014 344.806 113.317 344.635 146.55 336.136C179.783 327.638 210.407 311.075 235.71 287.914C261.013 264.753 280.213 235.709 291.61 203.356C303.007 171.002 306.249 136.337 301.049 102.431C295.849 68.5253 282.367 36.4251 261.798 8.97411C241.229 -18.4769 214.207 -40.4314 183.126 -54.9448L177.19 -42.2321C206.18 -28.695 231.384 -8.21718 250.57 17.3874C269.755 42.9919 282.33 72.9329 287.181 104.558C292.031 136.183 289.007 168.517 278.377 198.694C267.746 228.872 249.837 255.962 226.237 277.564C202.636 299.167 174.072 314.617 143.074 322.543C112.077 330.47 79.6026 330.63 48.5285 323.009C17.4544 315.387 -11.2605 300.22 -35.0727 278.85C-58.8849 257.481 -77.0594 230.568 -87.9863 200.497L-101.173 205.289Z" fill="url(#paint2_angular_208_200)"/>
<path d="M-74.3665 171.371C-65.1235 196.808 -49.7498 219.573 -29.6072 237.649C-9.46457 255.726 14.8252 268.556 41.1106 275.002C67.396 281.449 94.8656 281.314 121.086 274.609C147.307 267.904 171.469 254.835 191.433 236.561C211.397 218.288 226.546 195.372 235.538 169.845C244.53 144.319 247.088 116.968 242.985 90.2163C238.882 63.4647 228.245 38.1378 212.016 16.479C195.787 -5.17973 174.467 -22.5018 149.944 -33.9528L145.261 -23.9225C168.134 -13.2418 188.02 2.91515 203.157 23.117C218.295 43.3189 228.216 66.9423 232.043 91.8945C235.87 116.847 233.484 142.358 225.097 166.167C216.709 189.977 202.579 211.351 183.959 228.396C165.338 245.44 142.801 257.63 118.344 263.884C93.8867 270.138 68.2648 270.264 43.7475 264.251C19.2302 258.238 -3.42578 246.271 -22.2135 229.41C-41.0013 212.55 -55.3409 191.316 -63.9622 167.59L-74.3665 171.371Z" fill="url(#paint3_angular_208_200)"/>
</g>
<defs>
<radialGradient id="paint0_angular_208_200" cx="0" cy="0" r="1" gradientUnits="userSpaceOnUse" gradientTransform="translate(112.361 161.361) rotate(28.2576) scale(302.173)">
<stop offset="0.200885" stop-color="#48BF84" stop-opacity="0.33"/>
<stop offset="0.271644" stop-color="#48BF84" stop-opacity="0.33"/>
<stop offset="0.882549" stop-color="#48BF84" stop-opacity="0.22"/>
<stop offset="0.978609" stop-color="#48BF84" stop-opacity="0.29"/>
</radialGradient>
<radialGradient id="paint1_angular_208_200" cx="0" cy="0" r="1" gradientUnits="userSpaceOnUse" gradientTransform="translate(103.867 150.716) rotate(28.2576) scale(254.521)">
<stop offset="0.200885" stop-color="#48BF84" stop-opacity="0.31"/>
<stop offset="0.302408" stop-color="#48BF84" stop-opacity="0.4"/>
<stop offset="0.862709" stop-color="#48BF84" stop-opacity="0.31"/>
<stop offset="0.934554" stop-color="#48BF84" stop-opacity="0.29"/>
</radialGradient>
<radialGradient id="paint2_angular_208_200" cx="0" cy="0" r="1" gradientUnits="userSpaceOnUse" gradientTransform="translate(94.8726 134.052) rotate(28.2576) scale(208.587)">
<stop offset="0.200885" stop-color="#48BF84" stop-opacity="0.24"/>
<stop offset="0.302408" stop-color="#48BF84" stop-opacity="0.26"/>
<stop offset="0.862709" stop-color="#48BF84" stop-opacity="0.2"/>
<stop offset="0.934554" stop-color="#48BF84" stop-opacity="0.22"/>
</radialGradient>
<radialGradient id="paint3_angular_208_200" cx="0" cy="0" r="1" gradientUnits="userSpaceOnUse" gradientTransform="translate(80.3128 115.165) rotate(28.2576) scale(164.574)">
<stop offset="0.200885" stop-color="#48BF84" stop-opacity="0.24"/>
<stop offset="0.302408" stop-color="#48BF84" stop-opacity="0.26"/>
<stop offset="0.862709" stop-color="#48BF84" stop-opacity="0.2"/>
<stop offset="0.934554" stop-color="#48BF84" stop-opacity="0.22"/>
</radialGradient>
<clipPath id="clip0_208_200">
<rect width="1440" height="621" fill="white"/>
</clipPath>
</defs>
</svg>
